<!-- Generator: Adobe Illustrator 27.5.0, SVG Export Plug-In . SVG Version: 6.00 Build 0)  -->
<svg 
	version="1.1" 
	xmlns="http://www.w3.org/2000/svg"
>
  <g>
    <g>
      <g>
        <g>
          <path style="fill:#3B2F2F;" d="M681.327,333.89c-0.05-0.108-0.103-0.223-0.156-0.334c-0.031-0.063-0.061-0.128-0.09-0.192
            c-0.004-0.008-0.007-0.015-0.01-0.022c-0.026-0.029-0.054-0.056-0.08-0.085v31.087c0.149-0.322,0.305-0.642,0.473-0.959
            c0.121-0.228,0.295-0.396,0.495-0.512v-27.543c-0.031-0.045-0.079-0.076-0.103-0.126
            C681.641,334.766,681.459,334.335,681.327,333.89z"/>
        </g>
        <g>
          <path style="fill:#3B2F2F;" d="M681.556,388.93c0.028,0.215-0.033-0.119-0.042-0.16c-0.024-0.106-0.05-0.212-0.077-0.318
            c-0.05-0.198-0.102-0.395-0.15-0.593c-0.098-0.408-0.209-0.853-0.171-1.275c0.045-0.503,0.359-0.921,0.842-1.035v-15.236
            c-0.29,0.374-0.578,0.751-0.814,1.181c-0.047,0.085-0.1,0.156-0.154,0.225v30.576c0.208,0.117,0.388,0.299,0.496,0.566
            c0.037,0.091,0.064,0.184,0.098,0.275c0.169,0.11,0.298,0.283,0.374,0.51v-13.905
            C681.739,389.54,681.599,389.252,681.556,388.93z"/>
        </g>
        <g>
          <path style="fill:#3B2F2F;" d="M681.958,304.973v-10.882H530.292v68.703c0.156,0.048,0.313,0.122,0.462,0.259
            c0.214,0.196,0.372,0.405,0.506,0.62v-68.614h149.73v29.475c0.096,0.189,0.184,0.382,0.293,0.565
            c0.006,0.01,0.009,0.015,0.015,0.025c0.139,0.069,0.266,0.159,0.368,0.282c0.014,0.017,0.027,0.035,0.04,0.052
            c0.085,0.027,0.172,0.044,0.252,0.082v-17.06c-0.21-0.122-0.382-0.325-0.461-0.632c-0.088-0.342-0.27-0.65-0.347-0.994
            c-0.112-0.506-0.023-0.938,0.195-1.404C681.461,305.206,681.696,305.049,681.958,304.973z"/>
        </g>
        <g>
          <path style="fill:#3B2F2F;" d="M530.511,377.046c0.314,0.457,0.537,0.952,0.748,1.455V369.7
            c-0.382-0.452-0.703-0.945-0.968-1.471v8.593C530.368,376.888,530.446,376.951,530.511,377.046z"/>
        </g>
        <g>
          <path style="fill:#3B2F2F;" d="M530.536,405.995c0.177-0.326,0.443-0.483,0.724-0.517v-22.072
            c-0.133-0.053-0.265-0.138-0.389-0.262c-0.214-0.213-0.405-0.433-0.579-0.66v24
            C530.372,406.32,530.449,406.155,530.536,405.995z"/>
        </g>
        <g>
          <path style="fill:#3B2F2F;" d="M680.99,408.015v36.773H531.26v-32.921c-0.21,0.388-0.414,0.775-0.583,1.16
            c-0.096,0.218-0.231,0.361-0.385,0.451v32.278h151.666v-37.092C681.544,408.636,681.172,408.37,680.99,408.015z"/>
        </g>
      </g>
      <g>
        <path style="fill:#3B2F2F;" d="M534.648,347.111c-0.268,0-0.484-0.216-0.484-0.484v-48.664h143.922v12.469
          c0,0.268-0.216,0.484-0.484,0.484s-0.484-0.216-0.484-0.484v-11.501H535.132v47.696
          C535.132,346.894,534.916,347.111,534.648,347.111z"/>
      </g>
      <g>
        <path style="fill:#3B2F2F;" d="M671.666,441.884H540.468c-0.268,0-0.484-0.216-0.484-0.484c0-0.268,0.216-0.484,0.484-0.484
          h131.198c0.268,0,0.484,0.216,0.484,0.484C672.15,441.668,671.933,441.884,671.666,441.884z"/>
      </g>
    </g>
    <g>
      <g>
        <path style="fill:#3B2F2F;" d="M675.98,321.725c0.115-0.329,0.194-0.637,0.326-0.919c0.232-0.498,0.931-0.737,1.427-0.535
          c0.678,0.276,1.227,0.722,1.716,1.254c0.759,0.826,1.347,1.768,1.862,2.758c0.81,1.556,1.467,3.179,1.899,4.875
          c0.529,2.076,0.968,4.175,1.435,6.267c0.311,1.394,0.596,2.793,0.912,4.186c0.021,0.092,0.199,0.165,0.318,0.21
          c0.049,0.018,0.157-0.044,0.202-0.1c0.4-0.492,0.799-0.986,1.186-1.49c2.142-2.793,4.664-5.204,7.421-7.376
          c1.061-0.836,2.17-1.605,3.375-2.231c0.643-0.334,1.31-0.573,2.024-0.667c0.774-0.102,1.602,0.725,1.497,1.486
          c-0.099,0.716-0.295,1.412-0.736,1.993c-0.527,0.694-1.058,1.395-1.665,2.016c-1.169,1.195-2.461,2.255-3.836,3.207
          c-2.682,1.856-5.485,3.512-8.378,5.015c-0.281,0.146-0.571,0.277-0.863,0.4c-0.329,0.138-0.888,0.016-1.094-0.258
          c-0.285-0.38-0.591-0.755-0.803-1.175c-2.012-3.967-4.032-7.93-5.994-11.922c-0.841-1.711-1.508-3.502-1.95-5.365
          C676.134,322.817,676.072,322.265,675.98,321.725z M687.235,340.49c2.896-1.582,5.56-3.144,8.077-4.947
          c1.292-0.925,2.476-1.979,3.585-3.117c0.667-0.685,1.269-1.422,1.599-2.337c0.078-0.217,0.099-0.455,0.137-0.685
          c0.03-0.183-0.251-0.492-0.441-0.482c-0.232,0.012-0.48-0.003-0.693,0.073c-1.207,0.428-2.28,1.105-3.303,1.859
          c-3.273,2.414-6.186,5.199-8.635,8.455c-0.189,0.252-0.36,0.518-0.527,0.785c-0.035,0.056-0.048,0.16-0.02,0.215
          C687.096,340.473,687.239,340.487,687.235,340.49z M684.048,336.938c-0.573-2.723-1.047-5.54-1.921-8.265
          c-0.461-1.436-1.018-2.835-1.734-4.167c-0.529-0.983-1.13-1.916-1.957-2.677c-0.228-0.21-0.516-0.355-0.783-0.519
          c-0.181-0.112-0.514,0.062-0.564,0.251c-0.172,0.642-0.077,1.268,0.132,1.868c0.494,1.422,0.968,2.855,1.555,4.24
          c1.331,3.142,2.915,6.164,4.522,9.173c0.074,0.139,0.158,0.282,0.268,0.39c0.105,0.103,0.251,0.163,0.379,0.241
          C683.974,337.319,684.004,337.166,684.048,336.938z"/>
      </g>
      <g>
        <path style="fill:#3B2F2F;" d="M680.74,305.847c0.069-0.282,0.116-0.515,0.184-0.741c0.158-0.524,0.813-0.895,1.33-0.711
          c0.367,0.131,0.741,0.296,1.05,0.527c0.901,0.674,1.598,1.542,2.211,2.478c0.83,1.268,1.48,2.627,2.028,4.039
          c1.008,2.598,1.718,5.284,2.37,7.987c0.167,0.695,0.329,1.391,0.483,2.088c0.048,0.215,0.143,0.286,0.33,0.199
          c0.07-0.032,0.161-0.052,0.203-0.107c0.284-0.38,0.562-0.764,0.834-1.153c2.149-3.065,4.478-5.981,7.219-8.545
          c0.812-0.759,1.638-1.509,2.514-2.192c0.622-0.484,1.331-0.86,2.016-1.258c0.199-0.115,0.447-0.152,0.677-0.205
          c0.744-0.172,1.498,0.56,1.263,1.268c-0.199,0.597-0.421,1.21-0.762,1.732c-0.519,0.795-1.115,1.546-1.737,2.266
          c-2.139,2.479-4.621,4.587-7.211,6.575c-1.512,1.161-3.006,2.344-4.514,3.51c-0.186,0.144-0.391,0.276-0.608,0.363
          c-0.218,0.087-0.465,0.127-0.664-0.073c-0.11-0.111-0.219-0.226-0.312-0.352c-2.897-3.909-5.334-8.092-7.325-12.527
          c-0.55-1.227-0.942-2.527-1.361-3.808C680.815,306.764,680.805,306.275,680.74,305.847z M688.731,318.262
          c-0.374-1.278-0.837-2.955-1.357-4.614c-0.497-1.586-1.123-3.125-1.921-4.588c-0.609-1.116-1.315-2.166-2.264-3.026
          c-0.229-0.208-0.514-0.355-0.779-0.521c-0.185-0.116-0.514,0.044-0.572,0.225c-0.151,0.475-0.101,0.954,0.042,1.399
          c0.34,1.052,0.677,2.111,1.12,3.121c1.466,3.337,3.209,6.527,5.209,9.575c0.172,0.263,0.358,0.52,0.568,0.753
          c0.08,0.089,0.244,0.102,0.37,0.149c0.025-0.075,0.083-0.156,0.07-0.223C689.091,319.894,688.953,319.278,688.731,318.262z
          M693.082,320.75c0.143-0.065,0.304-0.107,0.428-0.198c1.019-0.748,2.056-1.474,3.04-2.266c2.219-1.786,4.341-3.678,6.163-5.884
          c0.656-0.794,1.302-1.592,1.677-2.565c0.042-0.108-0.023-0.319-0.113-0.4c-0.095-0.087-0.293-0.13-0.42-0.096
          c-0.224,0.059-0.452,0.161-0.638,0.299c-0.887,0.658-1.811,1.277-2.628,2.015c-2.824,2.552-5.347,5.378-7.508,8.518
          c-0.085,0.123-0.119,0.28-0.179,0.42C692.812,320.809,692.871,320.861,693.082,320.75z"/>
      </g>
      <g>
        <path style="fill:#3B2F2F;" d="M662.348,367.304c0.42,0.081,1.05,0.16,1.655,0.328c2.084,0.577,3.973,1.568,5.745,2.792
          c1.83,1.264,3.526,2.694,5.159,4.201c0.289,0.266,0.599,0.514,0.928,0.727c0.083,0.054,0.362-0.018,0.401-0.101
          c0.234-0.499,0.44-1.013,0.627-1.533c0.672-1.862,1.297-3.742,2.006-5.59c0.767-1.998,1.631-3.959,2.777-5.775
          c0.421-0.667,0.902-1.301,1.407-1.907c0.356-0.427,0.831-0.717,1.382-0.887c0.696-0.215,1.476,0.088,1.791,0.773
          c0.13,0.283,0.236,0.591,0.28,0.898c0.091,0.635-0.001,1.261-0.179,1.879c-0.418,1.455-0.99,2.844-1.766,4.143
          c-1.426,2.388-3.031,4.643-4.905,6.706c-0.956,1.052-2.053,1.983-2.813,3.213c-0.101,0.163-0.411,0.282-0.619,0.275
          c-0.468-0.017-0.948-0.072-1.396-0.205c-3.198-0.955-6.262-2.239-9.194-3.831c-1.613-0.876-3.074-1.965-4.294-3.344
          c-0.307-0.347-0.548-0.773-0.74-1.198c-0.264-0.586,0.204-1.361,0.827-1.45C661.662,367.382,661.899,367.358,662.348,367.304z
          M685.587,361.639c-0.058-0.312-0.088-0.467-0.115-0.622c-0.088-0.5-0.695-0.763-1.093-0.441
          c-0.425,0.345-0.886,0.685-1.195,1.123c-0.589,0.837-1.13,1.718-1.605,2.625c-1.471,2.806-2.549,5.777-3.561,8.772
          c-0.025,0.074-0.031,0.155-0.04,0.233c-0.009,0.078-0.024,0.161-0.01,0.236c0.014,0.075,0.053,0.197,0.097,0.204
          c0.127,0.022,0.317,0.051,0.386-0.018c2.819-2.825,5.093-6.023,6.61-9.733c0.119-0.292,0.249-0.588,0.309-0.895
          C685.476,362.583,685.532,362.034,685.587,361.639z M662.934,368.342c-0.879-0.078-1.311,0.087-1.282,0.273
          c0.036,0.223,0.088,0.48,0.226,0.645c1.184,1.419,2.65,2.493,4.258,3.379c2.365,1.303,4.862,2.308,7.395,3.229
          c0.145,0.053,0.314,0.077,0.467,0.063c0.148-0.013,0.368-0.058,0.412-0.155c0.048-0.104-0.028-0.329-0.125-0.426
          c-1.848-1.865-3.895-3.486-6.117-4.881c-1.211-0.761-2.498-1.379-3.867-1.801C663.701,368.483,663.078,368.355,662.934,368.342z
          "/>
      </g>
      <g>
        <path style="fill:#3B2F2F;" d="M686.193,398.976c0,0.869-0.002,1.738,0.008,2.608c0,0.034,0.122,0.106,0.169,0.094
          c0.879-0.239,1.422-0.965,2.096-1.491c2.39-1.866,4.898-3.525,7.721-4.67c1.48-0.6,2.988-1.086,4.612-1.04
          c0.395,0.011,0.794,0.045,1.182,0.119c0.225,0.043,0.443,0.165,0.642,0.289c0.55,0.342,0.752,1.16,0.38,1.674
          c-0.276,0.381-0.577,0.779-0.956,1.042c-0.714,0.496-1.468,0.949-2.248,1.332c-0.853,0.419-1.742,0.772-2.636,1.096
          c-3.507,1.269-7.021,2.518-10.535,3.766c-0.293,0.104-0.605,0.176-0.914,0.205c-0.126,0.012-0.327-0.099-0.39-0.212
          c-0.191-0.343-0.358-0.704-0.487-1.075c-1.495-4.279-2.697-8.639-3.494-13.102c-0.194-1.088-0.204-2.212-0.246-3.322
          c-0.014-0.385,0.111-0.782,0.21-1.164c0.114-0.437,0.844-0.674,1.189-0.393c0.243,0.198,0.529,0.389,0.676,0.651
          c0.387,0.689,0.748,1.398,1.046,2.128c0.542,1.328,0.848,2.728,1.11,4.134C685.778,394.069,686.169,396.499,686.193,398.976z
          M692.364,400.833c1.791-0.662,3.73-1.353,5.649-2.098c1.181-0.459,2.343-0.977,3.361-1.753
          c0.245-0.187,0.441-0.442,0.646-0.677c0.201-0.23,0.03-0.695-0.279-0.75c-0.386-0.07-0.779-0.169-1.166-0.16
          c-1.361,0.032-2.656,0.379-3.916,0.89c-2.441,0.989-4.672,2.337-6.759,3.931c-0.755,0.577-1.487,1.183-2.217,1.792
          c-0.091,0.076-0.103,0.249-0.151,0.377c0.145-0.002,0.303,0.033,0.433-0.011C689.387,401.883,690.805,401.381,692.364,400.833z
          M685.147,397.511c0.026-1.91-0.352-3.776-0.686-5.64c-0.306-1.709-0.745-3.397-1.471-4.988
          c-0.126-0.276-0.371-0.499-0.575-0.734c-0.027-0.031-0.146-0.001-0.211,0.026c-0.064,0.027-0.158,0.082-0.164,0.132
          c-0.042,0.385-0.135,0.782-0.083,1.157c0.354,2.585,0.859,5.141,1.557,7.656c0.401,1.444,0.838,2.879,1.269,4.315
          c0.012,0.04,0.134,0.072,0.199,0.064c0.059-0.007,0.158-0.074,0.158-0.116C685.15,398.76,685.147,398.135,685.147,397.511z"/>
      </g>
      <g>
        <path style="fill:#3B2F2F;" d="M676.985,397.073c0.033-0.114,0.101-0.422,0.209-0.715c0.158-0.429,0.82-0.672,1.202-0.437
          c0.267,0.164,0.538,0.34,0.754,0.563c0.673,0.695,1.078,1.561,1.454,2.437c0.973,2.268,1.618,4.636,2.106,7.047
          c0.235,1.164,0.389,2.344,0.596,3.514c0.04,0.226,0.125,0.46,0.252,0.648c0.067,0.099,0.315,0.191,0.404,0.143
          c0.763-0.411,1.53-0.821,2.255-1.293c2.936-1.912,6.059-3.444,9.343-4.652c1.192-0.438,2.399-0.844,3.691-0.826
          c0.472,0.007,0.95,0.057,1.412,0.153c0.78,0.163,1.323,1.067,1.074,1.84c-0.142,0.44-0.377,0.874-0.664,1.236
          c-0.498,0.63-1.196,1.026-1.893,1.413c-1.887,1.048-3.9,1.751-6.004,2.197c-1.472,0.312-2.95,0.595-4.432,0.855
          c-1.638,0.288-3.283,0.539-4.927,0.797c-0.751,0.118-1.18-0.107-1.558-0.785c-0.039-0.069-0.073-0.141-0.108-0.212
          c-1.732-3.479-3.343-7.011-4.539-10.716C677.296,399.305,676.938,398.328,676.985,397.073z M699.599,404.307
          c-0.348,0.045-0.661,0.079-0.971,0.128c-1.096,0.173-2.153,0.494-3.186,0.891c-3.104,1.193-6.085,2.632-8.852,4.49
          c-0.194,0.13-0.377,0.28-0.554,0.433c-0.055,0.047-0.118,0.18-0.1,0.198c0.078,0.081,0.195,0.2,0.278,0.186
          c1.947-0.317,3.901-0.605,5.835-0.989c2.25-0.446,4.461-1.049,6.475-2.197c0.613-0.349,1.195-0.763,1.744-1.206
          c0.226-0.183,0.345-0.513,0.48-0.791c0.12-0.245-0.054-0.727-0.285-0.825C700.175,404.504,699.876,404.408,699.599,404.307z
          M681.957,406.655c-0.287-1.213-0.506-2.298-0.804-3.36c-0.448-1.596-0.932-3.185-1.696-4.665
          c-0.249-0.483-0.596-0.918-0.93-1.351c-0.067-0.087-0.278-0.075-0.424-0.078c-0.031-0.001-0.077,0.131-0.094,0.207
          c-0.123,0.56,0.008,1.094,0.169,1.625c0.873,2.876,2.015,5.647,3.278,8.37c0.066,0.142,0.154,0.284,0.266,0.389
          c0.076,0.072,0.212,0.081,0.322,0.118c0.02-0.075,0.064-0.154,0.056-0.225C682.054,407.295,681.993,406.906,681.957,406.655z"/>
      </g>
      <g>
        <path style="fill:#3B2F2F;" d="M680.151,350.635c-0.112,1.771-0.374,3.491-0.901,5.162c-0.477,1.512-1.036,2.996-1.804,4.388
          c-0.88,1.595-1.787,3.175-2.689,4.758c-0.117,0.205-0.237,0.431-0.415,0.571c-0.311,0.243-0.671,0.43-1.095,0.33
          c-0.152-0.036-0.305-0.091-0.444-0.163c-3.662-1.9-7.227-3.96-10.429-6.584c-0.793-0.65-1.513-1.395-2.212-2.147
          c-0.314-0.338-0.52-0.788-0.729-1.21c-0.242-0.489,0.159-1.168,0.699-1.284c0.724-0.155,1.422-0.052,2.1,0.195
          c1.273,0.464,2.451,1.113,3.541,1.916c2.369,1.746,4.542,3.704,6.431,5.969c0.303,0.363,0.617,0.716,0.937,1.064
          c0.043,0.047,0.154,0.056,0.226,0.042c0.055-0.01,0.132-0.077,0.142-0.13c0.339-1.707,0.635-3.423,1.013-5.121
          c0.43-1.931,0.915-3.85,1.409-5.766c0.317-1.229,0.751-2.423,1.364-3.538c0.224-0.408,0.531-0.782,0.855-1.12
          c0.434-0.453,1.349-0.219,1.599,0.369C680.068,349.081,680.159,349.861,680.151,350.635z M671.256,363.857
          c0.214,0,0.373,0.037,0.502-0.01c0.15-0.055,0.132-0.209,0.004-0.374c-2.111-2.721-4.674-4.948-7.528-6.846
          c-0.991-0.659-2.08-1.149-3.269-1.354c-0.13-0.023-0.331,0.057-0.414,0.158c-0.074,0.091-0.088,0.312-0.027,0.418
          c0.563,0.981,1.425,1.691,2.268,2.41C665.4,360.484,668.381,362.143,671.256,363.857z M679.263,350.505
          c-0.046-0.312-0.096-0.783-0.197-1.242c-0.027-0.122-0.204-0.277-0.327-0.292c-0.124-0.015-0.299,0.097-0.393,0.205
          c-0.154,0.176-0.297,0.38-0.382,0.596c-0.377,0.959-0.782,1.911-1.085,2.894c-0.958,3.113-1.621,6.297-2.161,9.507
          c-0.018,0.109,0.09,0.239,0.139,0.36c0.065-0.043,0.153-0.071,0.193-0.131c1.471-2.187,2.624-4.525,3.356-7.063
          C678.847,353.81,679.18,352.262,679.263,350.505z"/>
      </g>
      <g>
        <path style="fill:#3B2F2F;" d="M685.976,293.859c0.019-0.564,0.574-1.051,1.127-0.953c0.307,0.054,0.626,0.131,0.896,0.277
          c0.926,0.5,1.662,1.234,2.216,2.113c0.589,0.936,1.157,1.899,1.61,2.906c1.076,2.388,1.937,4.854,2.438,7.435
          c0.045,0.233,0.08,0.475,0.172,0.69c0.089,0.206,0.247,0.383,0.374,0.572c0.125-0.093,0.278-0.163,0.371-0.281
          c0.838-1.055,1.644-2.136,2.501-3.176c1.007-1.224,2.015-2.451,3.098-3.607c0.864-0.923,1.804-1.785,2.781-2.588
          c0.604-0.496,1.314-0.891,2.028-1.216c0.408-0.185,0.922-0.183,1.388-0.184c0.511-0.002,1.029,0.654,0.958,1.166
          c-0.043,0.31-0.116,0.623-0.226,0.916c-0.4,1.062-1.127,1.906-1.899,2.706c-1.49,1.545-3.134,2.918-4.861,4.185
          c-1.213,0.889-2.496,1.683-3.747,2.521c-0.854,0.572-1.708,1.143-2.56,1.719c-0.299,0.202-0.61,0.152-0.804-0.151
          c-0.727-1.133-1.49-2.245-2.17-3.406c-1.481-2.53-2.936-5.076-4.366-7.635c-0.423-0.758-0.737-1.577-1.085-2.376
          C685.992,294.971,685.93,294.421,685.976,293.859z M697.438,306.096c2.826-1.756,5.437-3.793,7.761-6.18
          c0.545-0.56,0.98-1.231,1.439-1.87c0.132-0.184,0.176-0.433,0.256-0.653c0.098-0.269-0.257-0.602-0.564-0.58
          c-0.494,0.034-0.908,0.249-1.31,0.502c-1.416,0.891-2.63,2.023-3.731,3.268c-1.15,1.301-2.247,2.65-3.359,3.984
          c-0.303,0.363-0.589,0.742-0.858,1.13c-0.069,0.1-0.042,0.265-0.06,0.4C697.151,306.096,697.29,306.096,697.438,306.096z
          M693.185,305.177c-0.026-0.218-0.023-0.462-0.086-0.688c-0.621-2.218-1.333-4.406-2.353-6.478
          c-0.315-0.64-0.64-1.286-1.057-1.86c-0.463-0.637-1.023-1.205-1.569-1.777c-0.154-0.161-0.406-0.229-0.615-0.336
          c-0.154-0.079-0.498,0.18-0.513,0.358c-0.055,0.669,0.23,1.242,0.508,1.811c1.5,3.07,3.223,6.015,5.036,8.908
          c0.042,0.067,0.09,0.147,0.155,0.177c0.118,0.055,0.25,0.091,0.379,0.103C693.099,305.399,693.14,305.267,693.185,305.177z"/>
      </g>
      <g>
        <path style="fill:#3B2F2F;" d="M676.226,339.511c-0.056,2.218-0.41,4.005-0.908,5.769c-0.845,2.996-2.184,5.79-3.502,8.591
          c-0.326,0.694-0.942,0.89-1.583,0.574c-0.214-0.105-0.422-0.223-0.627-0.343c-3.796-2.214-7.233-4.893-10.319-8.019
          c-0.445-0.45-0.863-0.938-1.223-1.457c-0.218-0.314-0.324-0.716-0.436-1.092c-0.123-0.413,0.352-0.957,0.8-0.988
          c0.489-0.034,0.943,0.061,1.388,0.258c1.026,0.453,1.939,1.083,2.813,1.776c2.376,1.884,4.455,4.068,6.439,6.35
          c0.362,0.416,0.751,0.808,1.138,1.201c0.041,0.041,0.151,0.034,0.222,0.019c0.062-0.012,0.157-0.06,0.165-0.105
          c0.053-0.311,0.098-0.625,0.124-0.939c0.289-3.575,0.96-7.078,2.009-10.506c0.209-0.682,0.476-1.348,0.756-2.004
          c0.154-0.361,0.364-0.707,0.601-1.021c0.242-0.321,0.576-0.545,1.01-0.526c0.386,0.017,0.87,0.482,0.944,0.948
          C676.135,338.624,676.195,339.255,676.226,339.511z M675.391,339.658c-0.038-0.496,0.037-0.917-0.26-1.236
          c-0.077-0.083-0.317-0.142-0.374-0.091c-0.172,0.154-0.342,0.348-0.424,0.56c-1.421,3.648-2.259,7.431-2.596,11.327
          c-0.017,0.202-0.053,0.524,0.227,0.514c0.163-0.006,0.374-0.268,0.465-0.46c0.855-1.794,1.575-3.642,2.089-5.564
          C674.97,343.018,675.279,341.302,675.391,339.658z M668.824,352.155c-0.076-0.137-0.132-0.293-0.232-0.409
          c-1.711-1.981-3.52-3.869-5.485-5.601c-0.953-0.839-1.95-1.625-3.078-2.22c-0.272-0.144-0.584-0.217-0.882-0.307
          c-0.063-0.019-0.15,0.019-0.22,0.046c-0.189,0.076-0.23,0.212-0.111,0.386c0.177,0.26,0.333,0.542,0.547,0.769
          c2.727,2.903,5.775,5.416,9.166,7.51c0.053,0.033,0.139,0.009,0.208,0.022C668.902,352.38,668.931,352.318,668.824,352.155z"/>
      </g>
      <g>
        <path style="fill:#3B2F2F;" d="M690.398,388.54c-0.08,1.026-0.163,2.052-0.235,3.079c-0.005,0.067,0.058,0.187,0.108,0.199
          c0.132,0.031,0.32,0.075,0.407,0.01c1.073-0.812,2.125-1.653,3.197-2.467c1.579-1.199,3.226-2.299,4.972-3.24
          c1.263-0.68,2.585-1.22,4.046-1.264c0.468-0.014,0.951,0.037,1.405,0.148c0.867,0.211,1.141,1.196,0.713,1.916
          c-0.236,0.397-0.597,0.74-0.96,1.037c-0.987,0.808-2.111,1.4-3.283,1.89c-1.168,0.488-2.344,0.961-3.534,1.393
          c-2.381,0.863-4.775,1.687-7.065,2.783c-0.741,0.355-1.303,0.146-1.532-0.561c-1-3.086-2.072-6.156-2.54-9.385
          c-0.193-1.335-0.282-2.682-0.124-4.028c0.045-0.384,0.17-0.772,0.329-1.127c0.335-0.748,1.508-0.883,1.984-0.21
          c0.362,0.512,0.686,1.07,0.914,1.652c0.669,1.708,1.015,3.497,1.124,5.324c0.057,0.947,0.01,1.9,0.01,2.851
          C690.355,388.538,690.377,388.539,690.398,388.54z M703.849,386.866c0.368-0.559,0.229-0.941,0.029-1.001
          c-0.296-0.087-0.615-0.224-0.904-0.187c-1.186,0.151-2.316,0.519-3.378,1.073c-2.326,1.214-4.477,2.691-6.489,4.372
          c-0.101,0.085-0.132,0.253-0.195,0.383c0.148,0.038,0.322,0.147,0.44,0.104c2.523-0.93,5.058-1.83,7.547-2.843
          c0.94-0.383,1.78-1.019,2.642-1.576C703.792,387.029,703.961,386.741,703.849,386.866z M689.473,387.6
          c-0.053-0.946-0.081-1.975-0.174-2.999c-0.13-1.426-0.495-2.802-1.025-4.131c-0.115-0.289-0.288-0.564-0.476-0.813
          c-0.078-0.103-0.263-0.143-0.407-0.175c-0.192-0.043-0.278,0.07-0.347,0.248c-0.234,0.606-0.269,1.237-0.229,1.869
          c0.05,0.789,0.11,1.581,0.226,2.363c0.35,2.352,0.881,4.66,1.832,6.852c0.041,0.094,0.234,0.121,0.356,0.179
          c0.023-0.076,0.063-0.15,0.068-0.227C689.356,389.738,689.411,388.711,689.473,387.6z"/>
      </g>
      <g>
        <path style="fill:#3B2F2F;" d="M671.658,330.561c-0.092,0.636-0.193,1.664-0.394,2.672c-0.622,3.113-1.546,6.143-2.616,9.129
          c-0.053,0.148-0.147,0.28-0.222,0.42c-0.158,0.293-0.739,0.435-1.055,0.257c-0.138-0.078-0.28-0.151-0.408-0.243
          c-3.097-2.229-6.017-4.661-8.559-7.52c-0.473-0.532-0.901-1.106-1.318-1.684c-0.183-0.253-0.296-0.558-0.424-0.847
          c-0.271-0.614,0.27-1.341,0.963-1.247c0.463,0.062,0.936,0.172,1.362,0.36c1.025,0.451,1.905,1.133,2.733,1.878
          c1.539,1.384,2.907,2.92,4.06,4.643c0.352,0.526,0.715,1.043,1.08,1.559c0.039,0.055,0.125,0.091,0.196,0.107
          c0.181,0.042,0.256-0.056,0.261-0.272c0.026-1.189,0.038-2.379,0.092-3.566c0.097-2.142,0.368-4.264,0.887-6.346
          c0.151-0.607,0.41-1.196,0.687-1.759c0.132-0.267,0.401-0.485,0.648-0.673c0.503-0.383,1.369-0.13,1.624,0.424
          C671.596,328.594,671.694,329.371,671.658,330.561z M657.971,332.482c-0.089,0.058-0.205,0.099-0.206,0.142
          c-0.003,0.142-0.011,0.317,0.064,0.422c2.091,2.914,4.751,5.246,7.604,7.376c0.054,0.04,0.199,0.059,0.205,0.047
          c0.055-0.13,0.167-0.312,0.118-0.396c-1.386-2.42-3.152-4.523-5.348-6.246c-0.555-0.435-1.175-0.79-1.783-1.152
          C658.429,332.558,658.177,332.539,657.971,332.482z M668.31,336.559c0,0.788-0.003,1.575,0.005,2.363
          c0.001,0.068,0.093,0.197,0.115,0.191c0.121-0.031,0.307-0.069,0.337-0.153c0.855-2.383,1.431-4.84,1.846-7.333
          c0.154-0.929,0.214-1.885-0.021-2.821c-0.032-0.128-0.171-0.241-0.281-0.336c-0.126-0.11-0.488,0.04-0.594,0.227
          c-0.077,0.137-0.192,0.26-0.235,0.406c-0.2,0.679-0.428,1.355-0.56,2.049C668.583,332.938,668.336,334.736,668.31,336.559z"/>
      </g>
      <g>
        <path style="fill:#3B2F2F;" d="M695.517,300.83c0.306-5.821,1.316-11.51,3.316-17.002c0.298-0.819,0.649-1.624,1.04-2.402
          c0.209-0.416,0.527-0.792,0.85-1.135c0.624-0.661,1.597-0.402,1.859,0.492c0.111,0.377,0.206,0.777,0.199,1.165
          c-0.022,1.27,0.006,2.552-0.165,3.805c-0.538,3.946-1.534,7.79-2.827,11.554c-0.699,2.036-1.611,3.976-2.841,5.752
          c-0.175,0.253-0.416,0.471-0.662,0.66c-0.103,0.079-0.315,0.086-0.446,0.039c-0.129-0.046-0.307-0.2-0.31-0.311
          C695.506,302.574,695.517,301.702,695.517,300.83z M701.923,283.54c-0.059-0.708-0.114-1.416-0.18-2.124
          c-0.018-0.198-0.145-0.301-0.318-0.257c-0.144,0.037-0.331,0.083-0.405,0.189c-0.224,0.325-0.443,0.665-0.59,1.029
          c-0.475,1.176-0.98,2.347-1.36,3.555c-1.195,3.795-1.93,7.692-2.417,11.635c-0.126,1.022-0.134,2.059-0.166,3.09
          c-0.007,0.207,0.101,0.428,0.193,0.625c0.055,0.118,0.407-0.094,0.538-0.373c0.473-1.004,0.981-1.994,1.386-3.025
          c0.813-2.07,1.432-4.207,1.954-6.366C701.193,288.896,701.8,286.264,701.923,283.54z"/>
      </g>
      <g>
        <path style="fill:#3B2F2F;" d="M704.274,371.622c0.039,0.724-0.067,1.425-0.405,2.069c-0.476,0.908-0.901,1.856-1.481,2.694
          c-2.075,2.997-4.467,5.73-7.116,8.234c-0.284,0.268-0.619,0.487-0.951,0.694c-0.116,0.072-0.381,0.106-0.433,0.041
          c-0.137-0.169-0.23-0.397-0.271-0.614c-0.026-0.139,0.048-0.313,0.119-0.451c1.765-3.444,3.442-6.936,5.521-10.21
          c0.637-1.004,1.339-1.962,2.232-2.754c0.35-0.31,0.754-0.57,1.164-0.798c0.655-0.366,1.498,0.108,1.585,0.861
          C704.246,371.467,704.261,371.544,704.274,371.622z M696.011,382.58c0.068-0.04,0.153-0.065,0.202-0.121
          c1.5-1.738,3.026-3.454,4.479-5.231c0.648-0.792,1.167-1.694,1.703-2.572c0.456-0.745,0.801-1.548,0.972-2.412
          c0.03-0.151,0.02-0.313,0.005-0.468c-0.007-0.071-0.056-0.169-0.114-0.197c-0.127-0.063-0.321-0.168-0.402-0.118
          c-1.243,0.776-2.077,1.935-2.842,3.143c-1.568,2.479-2.923,5.075-4.199,7.713c-0.026,0.055,0.01,0.137,0.009,0.207
          C695.821,382.671,695.881,382.69,696.011,382.58z"/>
      </g>
      <g>
        <path style="fill:#3B2F2F;" d="M665.493,328.728c-0.044,0.657-0.067,1.133-0.11,1.606c-0.031,0.336-0.21,0.595-0.499,0.763
          c-0.174,0.101-0.603-0.145-0.755-0.434c-0.333-0.632-0.684-1.257-0.978-1.907c-1.446-3.194-2.607-6.479-3.18-9.953
          c-0.119-0.723-0.111-1.416,0.184-2.101c0.282-0.655,1.01-0.908,1.556-0.508c0.191,0.14,0.4,0.271,0.552,0.448
          c0.257,0.3,0.506,0.615,0.703,0.957c0.236,0.411,0.448,0.844,0.61,1.29C664.755,322.123,665.319,325.477,665.493,328.728z
          M664.505,327.934c0.007-1.817-0.342-3.372-0.679-4.917c-0.286-1.312-0.738-2.588-1.143-3.872
          c-0.216-0.685-0.546-1.322-1.071-1.828c-0.098-0.095-0.292-0.158-0.422-0.133c-0.117,0.022-0.274,0.172-0.297,0.289
          c-0.143,0.713-0.016,1.413,0.134,2.116c0.63,2.96,1.623,5.796,2.864,8.551c0.064,0.143,0.16,0.276,0.263,0.395
          c0.044,0.051,0.151,0.08,0.217,0.066c0.045-0.01,0.094-0.11,0.1-0.174C664.496,328.191,664.503,327.954,664.505,327.934z"/>
      </g>
      <g>
        <path style="fill:#3B2F2F;" d="M695.209,366.525c0.016,0.714-0.28,1.339-0.823,1.851c-0.585,0.552-1.259,0.935-2.048,1.132
          c-0.933,0.234-1.711-0.029-2.383-0.671c-0.598-0.57-0.936-1.295-0.978-2.101c-0.07-1.337,0.38-2.488,1.5-3.295
          c0.246-0.177,0.562-0.296,0.862-0.349C693.06,362.786,695.376,364.03,695.209,366.525z M691.97,363.999
          c-0.434-0.007-0.826,0.059-1.143,0.32c-1.046,0.86-1.247,2.55-0.445,3.643c0.527,0.718,1.305,0.957,2.079,0.566
          c0.487-0.246,0.98-0.529,1.371-0.9c0.552-0.524,0.714-1.197,0.427-1.953C693.844,364.576,693.151,364.06,691.97,363.999z"/>
      </g>
      <g>
        <path style="fill:#3B2F2F;" d="M674.996,313.762c0.057,1.323-0.923,2.582-2.292,2.945c-1.18,0.313-2.599-0.297-3.254-1.406
          c-0.666-1.128-0.607-2.252,0.046-3.361c0.662-1.124,1.832-1.526,3.055-1.075c0.602,0.222,1.141,0.534,1.592,0.993
          C674.619,312.342,674.968,313.12,674.996,313.762z M672.132,315.855c1.281,0.007,2.448-1.437,1.703-2.881
          c-0.463-0.899-1.29-1.349-2.324-1.333c-0.409,0.006-0.781,0.154-1.01,0.507c-0.21,0.325-0.439,0.665-0.536,1.031
          C669.6,314.554,670.775,315.983,672.132,315.855z"/>
      </g>
      <g>
        <path style="fill:#3B2F2F;" d="M698.433,357.58c-0.084,0.668-0.486,1.387-1.359,1.784c-0.94,0.427-1.836,0.351-2.662-0.273
          c-0.182-0.138-0.33-0.338-0.452-0.536c-0.835-1.361,0.185-3.445,1.767-3.617c0.233-0.025,0.471-0.031,0.704-0.016
          C697.71,355.003,698.561,356.021,698.433,357.58z M695.682,358.734c0.902-0.009,1.363-0.274,1.649-0.794
          c0.327-0.595,0.219-1.376-0.209-1.74c-0.464-0.395-0.992-0.448-1.544-0.245c-0.574,0.211-0.841,0.673-0.937,1.25
          C694.495,358.069,695.09,358.744,695.682,358.734z"/>
      </g>
      <g>
        <path style="fill:#3B2F2F;" d="M668.713,386.886c0.698-0.015,1.351,0.209,1.903,0.717c1.036,0.954,1.039,2.604,0.027,3.594
          c-0.945,0.924-2.858,1.069-3.804-0.134c-0.604-0.769-0.732-2.32-0.18-3.132C667.129,387.238,667.805,386.862,668.713,386.886z
          M668.931,387.847c-1.157-0.121-1.726,0.569-1.78,1.443c-0.055,0.897,0.742,1.812,1.528,1.823
          c0.816,0.012,1.709-0.739,1.855-1.56C670.671,388.786,669.876,387.94,668.931,387.847z"/>
      </g>
      <g>
        <path style="fill:#3B2F2F;" d="M699.085,346.627c1-0.039,1.856,0.88,1.702,1.853c-0.134,0.849-0.63,1.452-1.441,1.724
          c-0.54,0.182-1.102,0.151-1.551-0.281c-0.568-0.546-0.738-1.502-0.406-2.186C697.735,347.024,698.348,346.72,699.085,346.627z
          M699.81,348.28c-0.019-0.323-0.24-0.67-0.526-0.701c-0.214-0.023-0.471,0.024-0.652,0.133c-0.19,0.115-0.338,0.326-0.456,0.525
          c-0.148,0.25-0.041,0.674,0.182,0.861c0.269,0.224,0.561,0.266,0.874,0.122C699.637,349.033,699.835,348.701,699.81,348.28z"/>
      </g>
      <g>
        <path style="fill:#3B2F2F;" d="M696.214,303.281c-0.001-0.058-0.093-0.138-0.161-0.164c-0.067-0.026-0.177-0.028-0.232,0.01
          c-0.495,0.343-0.608,0.901-0.754,1.426c-0.894,3.213-1.762,6.432-2.661,9.643c-2.635,9.405-5.197,18.829-7.634,28.288
          c-1.882,7.307-3.697,14.627-5.123,22.04c-0.291,1.514-0.592,3.027-0.888,4.54c0.195-0.359,0.388-0.719,0.587-1.076
          c0.112-0.223,0.23-0.442,0.373-0.648c0.11-0.158,0.255-0.273,0.411-0.365c0.875-4.528,1.775-9.053,2.885-13.53
          c1.701-6.859,3.41-13.717,5.235-20.544c2.584-9.665,5.278-19.301,7.918-28.95C696.227,303.739,696.218,303.505,696.214,303.281z
          "/>
      </g>
      <g>
        <path style="fill:#3B2F2F;" d="M694.234,385.098c-0.135-0.044-0.356-0.09-0.429-0.02c-0.34,0.325-0.698,0.655-0.948,1.047
          c-1.284,2.01-2.485,4.072-3.47,6.245c-1.641,3.618-3.146,7.292-4.344,11.085c-0.095,0.299-0.224,0.589-0.35,0.877
          c-0.028,0.063-0.107,0.11-0.172,0.149c-0.163,0.101-0.26,0.033-0.306-0.187c-0.191-0.933-0.376-1.869-0.583-2.799
          c-0.761-3.411-1.593-6.8-2.613-10.147c-0.949-3.113-1.708-6.284-2.657-9.397c-0.482-1.579-0.493-3.108-0.18-4.697
          c0.182-0.925,0.354-1.852,0.528-2.778c-0.045,0.051-0.082,0.105-0.129,0.155c-0.299,0.314-0.651,0.382-0.968,0.298
          c-0.069,0.35-0.137,0.701-0.206,1.051c-0.03,0.153-0.092,0.301-0.152,0.446c-0.004,0.01-0.159-0.007-0.177-0.044
          c-0.171-0.347-0.393-0.686-0.479-1.056c-0.739-3.171-1.453-6.347-2.173-9.522c-1.705-7.513-3.664-14.962-5.73-22.383
          c-1.129-4.055-2.307-8.095-3.114-12.231c-0.045-0.228-0.12-0.464-0.24-0.659c-0.06-0.097-0.281-0.18-0.383-0.143
          c-0.117,0.042-0.245,0.218-0.26,0.348c-0.026,0.23,0.011,0.473,0.053,0.704c0.494,2.738,1.177,5.431,1.927,8.108
          c2.014,7.188,3.957,14.394,5.713,21.65c1.457,6.019,2.57,12.12,4.264,18.083c0.158,0.557,0.105,1.089,0.034,1.646
          c-0.25,1.97-0.486,3.941-0.69,5.916c-0.236,2.292-0.416,4.589-0.649,6.881c-0.483,4.747-0.746,9.504-0.709,14.73
          c0.116,2.644,0.303,5.738,0.372,8.835c0.058,2.631,0.348,5.231,0.778,7.819c0.352,2.114,0.781,4.215,1.144,6.327
          c0.567,3.296,1.402,6.519,2.507,9.675c0.367,1.048,0.671,2.117,1.02,3.171c0.098,0.296,0.226,0.59,0.391,0.853
          c0.061,0.097,0.274,0.152,0.41,0.139c0.329-0.031,0.626-0.199,0.773-0.491c0.249-0.493,0.478-1.002,0.653-1.525
          c2.083-6.217,3.275-12.598,3.455-19.158c0.1-3.656,0.116-7.31-0.46-10.94c-0.199-1.254-0.313-2.523-0.534-3.773
          c-0.24-1.362-0.106-2.651,0.283-3.985c1.138-3.9,2.63-7.661,4.261-11.37c0.671-1.524,1.444-3.007,2.245-4.469
          c0.762-1.391,1.621-2.729,2.436-4.091C694.471,385.311,694.427,385.161,694.234,385.098z M680.455,422.891
          c-0.395,2.747-0.684,5.515-0.66,8.301c0.018,2.143,0.032,4.287,0.033,6.43c0,0.097-0.136,0.2-0.223,0.285
          c-0.011,0.01-0.153-0.066-0.174-0.124c-0.662-1.795-0.97-3.679-1.38-5.537c-0.29-1.316-0.498-2.65-0.747-3.975
          c-0.674-3.59-1.24-7.187-1.296-10.857c-0.036-2.379-0.251-4.755-0.329-6.134c0-3.699-0.085-6.402,0.023-9.097
          c0.118-2.932,0.396-5.858,0.642-8.784c0.199-2.372,0.444-4.741,0.69-7.109c0.082-0.786,0.221-1.567,0.361-2.346
          c0.024-0.131,0.188-0.237,0.287-0.355c0.044,0.066,0.107,0.127,0.128,0.2c2.093,7.156,4.288,14.284,5.677,21.625
          c0.24,1.269,0.263,2.487-0.103,3.754C682.081,413.671,681.121,418.255,680.455,422.891z M685.347,420.84
          c-0.208,5.163-0.482,9.431-1.307,13.642c-0.503,2.568-1.187,5.089-1.982,7.58c-0.065,0.203-0.245,0.469-0.421,0.515
          c-0.342,0.089-0.267-0.268-0.296-0.454c-0.146-0.939-0.326-1.878-0.395-2.824c-0.32-4.354-0.345-8.716,0.03-13.063
          c0.279-3.235,0.839-6.439,1.557-9.609c0.42-1.853,0.864-3.7,1.316-5.546c0.027-0.113,0.213-0.213,0.346-0.266
          c0.148-0.06,0.252,0.055,0.279,0.259c0.126,0.942,0.294,1.881,0.37,2.827C685.053,416.506,685.224,419.114,685.347,420.84z"/>
      </g>
    </g>
    <g>
      <g>
        <path style="fill:#3B2F2F;" d="M525.808,371.042c0.192,0.056,0.52,0.091,0.781,0.243c0.337,0.196,0.64,0.464,0.922,0.738
          c1.031,1.003,1.839,2.179,2.556,3.417c1.077,1.857,1.92,3.821,2.645,5.838c0.187,0.521,0.374,1.043,0.565,1.562
          c0.08,0.217,0.427,0.317,0.569,0.163c0.267-0.289,0.541-0.573,0.786-0.881c1.94-2.434,4.201-4.535,6.693-6.386
          c0.695-0.516,1.473-0.924,2.236-1.34c0.57-0.311,1.202-0.367,1.849-0.297c0.629,0.068,1.167,0.793,0.958,1.379
          c-0.158,0.443-0.326,0.909-0.606,1.274c-0.48,0.625-1.001,1.239-1.598,1.749c-1.083,0.926-2.176,1.862-3.369,2.633
          c-2.195,1.419-4.469,2.716-6.703,4.075c-0.561,0.341-1.047,0.24-1.516-0.158c-0.121-0.102-0.249-0.197-0.365-0.304
          c-2.162-2.004-4.071-4.224-5.649-6.716c-0.895-1.414-1.585-2.926-1.863-4.598c-0.092-0.554-0.123-1.103,0.11-1.635
          C524.979,371.41,525.274,371.173,525.808,371.042z M525.569,372.652c0.028,0.313,0.013,0.717,0.107,1.095
          c0.269,1.078,0.691,2.099,1.24,3.069c1.059,1.87,2.371,3.549,3.825,5.122c0.319,0.345,0.683,0.649,1.033,0.963
          c0.052,0.047,0.163,0.088,0.213,0.063c0.056-0.028,0.095-0.131,0.102-0.205c0.015-0.154,0.043-0.322-0.002-0.463
          c-0.85-2.647-1.963-5.175-3.492-7.503c-0.433-0.658-0.954-1.26-1.458-1.869c-0.199-0.241-0.44-0.465-0.703-0.629
          c-0.183-0.114-0.439-0.144-0.661-0.139C525.712,372.158,525.658,372.424,525.569,372.652z M535.455,383.089
          c0.148-0.014,0.325,0.02,0.441-0.048c1.431-0.85,2.889-1.662,4.266-2.593c1.179-0.797,2.28-1.713,3.381-2.619
          c0.486-0.4,0.895-0.896,1.32-1.366c0.157-0.173,0.255-0.399,0.381-0.6c0.157-0.25,0.158-0.53-0.019-0.63
          c-0.132-0.074-0.282-0.156-0.427-0.162c-0.752-0.027-1.394,0.313-1.978,0.719c-2.747,1.91-5.269,4.07-7.327,6.731
          c-0.095,0.123-0.149,0.278-0.222,0.419C535.209,383.062,535.271,383.112,535.455,383.089z"/>
      </g>
      <g>
        <path style="fill:#3B2F2F;" d="M527.417,362.021c0.056-0.162,0.113-0.394,0.214-0.605c0.186-0.389,0.869-0.671,1.221-0.479
          c0.412,0.225,0.836,0.458,1.183,0.768c1.197,1.068,2.089,2.368,2.787,3.809c0.727,1.501,1.275,3.068,1.775,4.654
          c0.214,0.678,0.4,1.366,0.626,2.04c0.04,0.119,0.209,0.254,0.332,0.269c0.126,0.015,0.313-0.073,0.396-0.177
          c0.544-0.68,1.063-1.38,1.599-2.066c1.669-2.139,3.638-3.966,5.833-5.55c0.51-0.369,1.057-0.709,1.631-0.961
          c0.422-0.185,0.912-0.242,1.379-0.288c0.508-0.05,1.099,0.541,1.059,1.063c-0.029,0.384-0.077,0.816-0.272,1.129
          c-0.415,0.667-0.887,1.311-1.416,1.892c-1.125,1.235-2.439,2.266-3.833,3.177c-1.987,1.299-4.007,2.549-6.019,3.81
          c-0.504,0.316-1.083,0.218-1.503-0.236c-2.659-2.872-4.782-6.102-6.393-9.665C527.489,363.437,527.392,362.887,527.417,362.021z
          M528.6,361.981c-0.04,0.064-0.094,0.124-0.119,0.193c-0.202,0.565-0.029,1.094,0.193,1.603
          c1.238,2.841,2.768,5.507,4.754,7.898c0.05,0.06,0.116,0.109,0.182,0.151c0.066,0.042,0.197,0.107,0.207,0.093
          c0.079-0.106,0.211-0.247,0.188-0.344c-0.584-2.473-1.404-4.863-2.768-7.02c-0.501-0.793-1.188-1.471-1.813-2.181
          c-0.148-0.169-0.385-0.264-0.59-0.376C528.771,361.966,528.679,361.986,528.6,361.981z M537.873,372.075
          c0.077-0.018,0.164-0.019,0.231-0.056c1.729-0.98,3.417-2.031,4.954-3.291c0.918-0.752,1.761-1.601,2.59-2.453
          c0.322-0.331,0.52-0.786,0.761-1.192c0.112-0.188,0.012-0.594-0.149-0.64c-0.14-0.04-0.32-0.109-0.431-0.057
          c-0.572,0.269-1.17,0.514-1.683,0.874c-2.419,1.701-4.554,3.706-6.315,6.094c-0.092,0.124-0.155,0.273-0.208,0.42
          c-0.018,0.05,0.022,0.14,0.064,0.187C537.732,372.012,537.809,372.037,537.873,372.075z"/>
      </g>
      <g>
        <path style="fill:#3B2F2F;" d="M532.324,352.431c0.598,0.099,1.07,0.236,1.379,0.625c0.392,0.493,0.775,1.006,1.078,1.556
          c0.576,1.047,0.942,2.183,1.263,3.332c0.471,1.683,0.832,3.389,1.061,5.123c0.025,0.192,0.132,0.275,0.334,0.229
          c0.074-0.017,0.163-0.042,0.208-0.095c0.259-0.298,0.504-0.607,0.759-0.908c1.233-1.453,2.435-2.934,3.715-4.345
          c0.744-0.82,1.575-1.574,2.442-2.264c0.548-0.436,1.217-0.738,1.865-1.023c0.362-0.159,0.782-0.097,1.121,0.178
          c0.333,0.271,0.499,0.862,0.328,1.308c-0.17,0.443-0.341,0.897-0.592,1.295c-0.337,0.535-0.721,1.049-1.141,1.522
          c-0.526,0.593-1.092,1.153-1.672,1.695c-2.104,1.966-4.536,3.468-7.013,4.902c-0.353,0.205-0.822,0.078-1.042-0.258
          c-0.13-0.199-0.267-0.395-0.381-0.604c-0.799-1.464-1.622-2.915-2.379-4.399c-0.94-1.841-1.758-3.734-2.198-5.77
          c-0.122-0.566-0.125-1.125,0.206-1.604C531.828,352.69,532.145,352.56,532.324,352.431z M546.86,355.928
          c0.008-0.151-0.416-0.308-0.598-0.236c-0.828,0.329-1.482,0.908-2.115,1.505c-1.846,1.743-3.5,3.66-5.044,5.673
          c-0.12,0.157-0.073,0.317,0.095,0.398c0.054,0.026,0.151,0.009,0.209-0.024c2.518-1.403,4.673-3.245,6.513-5.454
          c0.35-0.42,0.605-0.922,0.878-1.402C546.869,356.264,546.842,356.083,546.86,355.928z M535.942,361.487
          c-0.129-0.596-0.274-1.287-0.428-1.976c-0.312-1.391-0.722-2.752-1.324-4.048c-0.199-0.429-0.435-0.843-0.685-1.244
          c-0.122-0.197-0.299-0.371-0.484-0.513c-0.114-0.087-0.288-0.112-0.439-0.133c-0.166-0.022-0.339,0.307-0.283,0.55
          c0.631,2.721,1.713,5.247,3.285,7.558c0.039,0.058,0.136,0.076,0.206,0.113C535.824,361.729,535.856,361.663,535.942,361.487z"
          />
      </g>
      <g>
        <path style="fill:#3B2F2F;" d="M527.333,422.195c-2.072-0.288-3.839-0.198-5.52-0.74c-0.675-0.218-1.352-0.444-1.998-0.731
          c-0.272-0.121-0.485-0.397-0.696-0.628c-0.318-0.349-0.235-0.994,0.154-1.265c0.191-0.134,0.391-0.274,0.608-0.349
          c1.146-0.397,2.328-0.456,3.521-0.298c1.813,0.239,3.583,0.648,5.265,1.385c0.507,0.222,1.011,0.453,1.518,0.675
          c0.172,0.076,0.534-0.062,0.602-0.234c0.144-0.367,0.278-0.738,0.417-1.107c0.641-1.704,1.252-3.419,1.933-5.107
          c0.445-1.103,1.035-2.139,1.825-3.045c0.419-0.481,0.884-0.904,1.468-1.186c0.666-0.322,1.526,0.15,1.613,0.879
          c0.078,0.652-0.022,1.278-0.311,1.848c-0.572,1.129-1.112,2.287-1.813,3.335c-1.32,1.974-2.746,3.877-4.125,5.812
          c-0.195,0.273-0.446,0.453-0.777,0.479C529.675,422.026,528.334,422.121,527.333,422.195z M527.55,421.217
          c0.475,0,0.951,0.004,1.426-0.004c0.06-0.001,0.173-0.084,0.169-0.092c-0.057-0.14-0.092-0.346-0.201-0.4
          c-2.462-1.224-5.054-1.861-7.818-1.635c-0.299,0.024-0.597,0.171-0.872,0.308c-0.069,0.034-0.105,0.338-0.056,0.372
          c0.319,0.222,0.644,0.474,1.007,0.586C523.269,420.992,525.406,421.153,527.55,421.217z M532.655,417.346
          c-0.141,0.502-0.234,0.803-0.304,1.109c-0.014,0.06,0.047,0.154,0.1,0.204c0.026,0.024,0.139,0.002,0.17-0.035
          c1.903-2.241,3.496-4.671,4.525-7.444c0.078-0.21-0.052-0.544-0.214-0.612c-0.26-0.108-0.473,0.015-0.646,0.17
          c-0.293,0.263-0.61,0.524-0.82,0.848c-0.513,0.794-1.033,1.594-1.436,2.446C533.49,415.173,533.057,416.364,532.655,417.346z"/>
      </g>
      <g>
        <path style="fill:#3B2F2F;" d="M527.108,415.751c-2.123-0.043-4.196-0.577-6.259-1.123c-0.678-0.179-1.331-0.506-1.942-0.859
          c-0.317-0.183-0.538-0.556-0.762-0.871c-0.164-0.23-0.066-0.66,0.124-0.881c0.324-0.376,0.731-0.604,1.22-0.657
          c1.031-0.112,2.039-0.061,3.047,0.263c1.441,0.463,2.799,1.087,4.098,1.854c0.34,0.201,0.687,0.388,1.035,0.574
          c0.212,0.113,0.523-0.023,0.554-0.232c0.197-1.328,0.362-2.662,0.609-3.981c0.277-1.483,0.738-2.92,1.469-4.245
          c0.301-0.546,0.708-1.045,1.128-1.509c0.196-0.217,0.526-0.341,0.819-0.436c0.629-0.204,1.353,0.218,1.456,0.842
          c0.064,0.387,0.101,0.785,0.087,1.176c-0.045,1.206-0.408,2.344-0.91,3.42c-0.501,1.072-1.079,2.112-1.681,3.133
          c-0.481,0.817-1.191,1.525-1.542,2.387c-0.466,1.145-1.246,1.315-2.28,1.164C527.299,415.76,527.219,415.759,527.108,415.751z
          M533.007,405.66c-0.039-0.382-0.021-0.552-0.081-0.691c-0.057-0.133-0.173-0.274-0.3-0.332
          c-0.119-0.054-0.337-0.062-0.423,0.012c-0.294,0.253-0.621,0.511-0.808,0.839c-1.229,2.165-1.902,4.499-2.02,6.988
          c-0.003,0.072,0.075,0.212,0.082,0.21c0.141-0.043,0.331-0.062,0.408-0.163c0.958-1.268,1.76-2.632,2.308-4.124
          C532.526,407.44,532.773,406.441,533.007,405.66z M525.355,414.673c0.289,0,0.382,0.027,0.444-0.006
          c0.11-0.058,0.216-0.14,0.294-0.236c0.025-0.03-0.024-0.168-0.076-0.205c-1.234-0.892-2.624-1.453-4.083-1.831
          c-0.766-0.198-1.565-0.257-2.352-0.071c-0.118,0.028-0.268,0.177-0.289,0.29c-0.024,0.129,0.042,0.328,0.14,0.412
          c0.175,0.15,0.397,0.256,0.614,0.345C521.816,414.101,523.687,414.404,525.355,414.673z"/>
      </g>
      <g>
        <path style="fill:#3B2F2F;" d="M545.321,342.48c-0.134,0.797-0.206,1.676-0.437,2.512c-1.169,4.238-2.979,8.201-5.274,11.945
          c-0.117,0.191-0.314,0.351-0.508,0.469c-0.115,0.07-0.316,0.076-0.443,0.025c-0.125-0.05-0.272-0.2-0.291-0.324
          c-0.048-0.308-0.083-0.636-0.027-0.938c0.668-3.589,1.211-7.209,2.404-10.677c0.413-1.199,0.893-2.38,1.431-3.527
          c0.299-0.636,0.757-1.205,1.189-1.769c0.253-0.331,0.66-0.472,1.066-0.341c0.406,0.131,0.628,0.489,0.695,0.895
          C545.217,341.296,545.253,341.851,545.321,342.48z M544.448,342.016c-0.006-0.317-0.053-0.609-0.299-0.853
          c-0.192-0.19-0.552,0.032-0.843,0.613c-0.387,0.775-0.763,1.558-1.086,2.361c-0.826,2.054-1.409,4.182-1.857,6.347
          c-0.208,1.002-0.369,2.015-0.54,3.024c-0.053,0.315,0.084,0.632,0.202,0.559c0.125-0.078,0.268-0.17,0.335-0.293
          c1.492-2.703,2.652-5.547,3.511-8.508C544.179,344.211,544.459,343.134,544.448,342.016z"/>
      </g>
      <g>
        <path style="fill:#3B2F2F;" d="M528.441,401.386c-0.059,0.398-0.092,0.796-0.181,1.181c-0.429,1.866-1.128,3.637-1.931,5.368
          c-0.13,0.28-0.344,0.539-0.571,0.75c-0.163,0.152-0.412,0.216-0.628,0.303c-0.068,0.027-0.158,0.01-0.236,0.002
          c-2.218-0.241-4.391-0.685-6.457-1.549c-0.429-0.18-0.813-0.486-1.189-0.771c-0.357-0.271-0.521-0.909-0.355-1.302
          c0.163-0.386,0.47-0.643,0.876-0.737c0.877-0.203,1.742-0.069,2.583,0.19c0.911,0.281,1.793,0.641,2.6,1.164
          c0.466,0.302,0.947,0.58,1.425,0.862c0.22,0.13,0.516,0.009,0.547-0.211c0.176-1.256,0.323-2.517,0.539-3.765
          c0.121-0.7,0.332-1.388,0.553-2.065c0.096-0.292,0.309-0.549,0.49-0.808c0.233-0.333,0.752-0.529,1.041-0.403
          c0.381,0.167,0.662,0.452,0.77,0.85C528.4,400.747,528.403,401.071,528.441,401.386z M518.329,405.398
          c-0.119,0.115-0.279,0.203-0.322,0.33c-0.039,0.116,0.002,0.339,0.089,0.402c0.313,0.226,0.647,0.436,0.999,0.595
          c1.3,0.589,2.706,0.814,4.085,1.124c0.143,0.032,0.306-0.028,0.46-0.045c-0.113-0.18-0.186-0.414-0.344-0.532
          c-1.349-1.005-2.873-1.613-4.523-1.909C518.625,405.337,518.465,405.386,518.329,405.398z M526.062,404.585
          c0,0.283-0.007,0.441,0.003,0.599c0.005,0.076,0.042,0.149,0.065,0.224c0.098-0.048,0.257-0.073,0.284-0.147
          c0.303-0.815,0.633-1.624,0.856-2.462c0.14-0.526,0.124-1.096,0.146-1.647c0.003-0.075-0.174-0.173-0.285-0.227
          c-0.034-0.017-0.15,0.061-0.181,0.12C526.35,402.192,526.271,403.467,526.062,404.585z"/>
      </g>
      <g>
        <path style="fill:#3B2F2F;" d="M524.514,404.597c-0.004,0.771-0.214,1.044-0.391,1.015c-0.151-0.025-0.324-0.021-0.444-0.098
          c-0.196-0.125-0.372-0.292-0.531-0.464c-0.481-0.522-0.965-1.044-1.422-1.588c-0.915-1.087-1.827-2.18-2.517-3.432
          c-0.266-0.483-0.563-0.965-0.725-1.485c-0.16-0.516-0.23-1.08-0.23-1.623c0-0.973,0.951-1.564,1.834-1.2
          c0.669,0.276,1.266,0.663,1.71,1.232c0.386,0.495,0.755,1.014,1.053,1.565C523.962,400.574,524.378,402.812,524.514,404.597z
          M523.406,403.012c-0.264-1.319-0.594-2.615-1.21-3.826c-0.362-0.71-0.77-1.384-1.359-1.924
          c-0.23-0.211-0.492-0.411-0.776-0.528c-0.192-0.08-0.497-0.085-0.661,0.019c-0.162,0.103-0.292,0.388-0.287,0.59
          c0.008,0.307,0.108,0.627,0.233,0.913c0.867,1.976,2.097,3.696,3.702,5.141c0.051,0.046,0.213,0.063,0.219,0.05
          C523.326,403.307,523.363,403.158,523.406,403.012z"/>
      </g>
      <g>
        <path style="fill:#3B2F2F;" d="M520.614,387.038c-0.001-0.426,0.161-1.024,0.575-1.54c0.472-0.589,1.073-0.923,1.837-0.911
          c0.314,0.005,0.634,0.023,0.939,0.091c1.258,0.281,2.207,1.334,2.395,2.624c0.121,0.832-0.549,2.132-1.381,2.59
          c-0.938,0.517-1.918,0.765-2.922,0.172C520.996,389.437,520.609,388.447,520.614,387.038z M523.349,389.429
          c0.078-0.006,0.156-0.015,0.234-0.017c0.961-0.025,1.634-0.777,1.815-1.56c0.181-0.786-0.318-1.681-1.174-2.079
          c-0.21-0.098-0.44-0.164-0.667-0.21c-1.197-0.242-2.19,0.657-2.067,1.884c0.031,0.306,0.122,0.614,0.232,0.904
          C522.002,389.093,522.56,389.451,523.349,389.429z"/>
      </g>
      <g>
        <path style="fill:#3B2F2F;" d="M540.466,398.804c0.045,1.567-1.037,2.846-2.532,3.012c-1.05,0.117-1.856-0.363-2.427-1.201
          c-0.77-1.129-0.59-2.813,0.473-3.684c0.825-0.677,1.815-0.933,2.885-0.479C539.942,396.908,540.406,397.752,540.466,398.804z
          M536.015,399.215c0.035,0.959,0.734,1.66,1.652,1.658c1.08-0.002,1.999-0.92,1.957-1.954c-0.043-1.044-0.862-1.84-1.825-1.774
          C536.646,397.224,535.971,398.007,536.015,399.215z"/>
      </g>
      <g>
        <path style="fill:#3B2F2F;" d="M518.989,382.635c-0.378-0.083-0.745-0.23-1.006-0.553c-0.588-0.73-0.643-1.687-0.124-2.437
          c0.457-0.66,1.117-0.862,1.884-0.716c0.606,0.115,0.943,0.538,1.149,1.091C521.382,381.333,520.374,382.67,518.989,382.635z
          M519.086,381.691c0.397,0.054,0.875-0.306,1.02-0.768c0.137-0.437-0.193-0.957-0.654-1.034
          c-0.382-0.063-0.811,0.167-0.935,0.501c-0.171,0.459-0.016,0.988,0.358,1.211C518.939,381.641,519.015,381.662,519.086,381.691z
          "/>
      </g>
      <g>
        <path style="fill:#3B2F2F;" d="M526.01,426.456c-0.024,1.087-0.666,1.886-1.557,2.031c-0.296,0.048-0.65,0.007-0.922-0.116
          c-0.968-0.44-1.353-1.699-0.84-2.641c0.074-0.136,0.189-0.257,0.307-0.36c0.759-0.661,2.198-0.478,2.75,0.374
          C525.913,425.997,525.964,426.325,526.01,426.456z M525.027,426.806c0.055-0.456-0.297-0.885-0.795-0.967
          c-0.332-0.055-0.766,0.255-0.873,0.623c-0.12,0.413,0.217,0.95,0.666,1.061C524.47,427.634,524.97,427.276,525.027,426.806z"/>
      </g>
      <g>
        <path style="fill:#3B2F2F;" d="M532.943,426.341c-0.615-2.633-1.371-5.224-2.302-7.761c-0.277-0.754-0.514-1.501-0.462-2.316
          c0.074-1.143,0.13-2.288,0.211-3.43c-0.292,0.235-0.667,0.244-0.994,0.107c-0.052,0.354-0.105,0.708-0.156,1.062
          c-0.007,0.048-0.089,0.122-0.133,0.121c-0.071-0.002-0.178-0.04-0.204-0.095c-1.147-2.355-2.285-4.715-3.43-7.072
          c-0.243-0.5-0.505-0.991-0.765-1.482c-0.21-0.396-0.508-0.549-0.708-0.376c-0.216,0.187-0.189,0.407-0.083,0.638
          c0.133,0.288,0.255,0.582,0.397,0.866c0.53,1.067,1.097,2.118,1.593,3.201c0.959,2.094,1.891,4.2,2.805,6.313
          c0.25,0.578,0.427,1.18,0.389,1.846c-0.183,3.173-0.332,6.347-0.493,9.521c0.012,0.001,0.024,0.002,0.036,0.003
          c-0.039,1.429-0.122,2.858-0.103,4.286c0.018,1.349,0.179,2.697,0.212,4.046c0.067,2.797,0.649,5.518,1.165,8.248
          c0.087,0.459,0.279,0.912,0.501,1.326c0.09,0.168,0.387,0.304,0.593,0.308c0.21,0.004,0.479-0.122,0.621-0.281
          c0.206-0.231,0.352-0.531,0.472-0.822c1.316-3.201,2.017-6.541,1.905-9.994C533.916,431.826,533.579,429.061,532.943,426.341z
          M533.06,436.061c-0.13,2.625-0.605,5.187-1.662,7.614c-0.048,0.111-0.257,0.156-0.398,0.215
          c-0.013,0.005-0.099-0.109-0.115-0.177c-0.538-2.238-0.958-4.494-1.083-6.798c-0.137-2.533-0.472-5.058-0.328-7.2
          c0.15-3.254,0.283-6.106,0.411-8.958c0.01-0.233,0.097-0.308,0.282-0.206c0.063,0.035,0.122,0.093,0.16,0.154
          c0.084,0.134,0.181,0.268,0.227,0.416c0.934,3.033,1.753,6.087,2.153,9.25C532.945,432.265,533.154,434.156,533.06,436.061z"/>
      </g>
      <g>
        <path style="fill:#3B2F2F;" d="M538.711,357.14c-0.129,0.042-0.296,0.129-0.341,0.239c-0.149,0.366-0.266,0.747-0.368,1.13
          c-1.02,3.841-1.802,7.734-2.538,11.636c-0.412,2.185-0.702,4.392-1.068,6.585c-0.993,5.953-2.05,11.897-2.976,17.86
          c-0.499,3.216-0.804,6.463-1.155,9.701c-0.104,0.956-0.191,1.913-0.279,2.871c0.163-0.4,0.347-0.793,0.583-1.168
          c0.145-0.23,0.331-0.372,0.532-0.447c0.206-1.965,0.416-3.929,0.624-5.894c0.327-3.081,0.75-6.149,1.267-9.204
          c0.57-3.367,1.13-6.736,1.684-10.105c0.516-3.135,0.94-6.287,1.548-9.404c0.776-3.973,1.473-7.966,2.574-11.87
          c0.129-0.456,0.167-0.937,0.242-1.407C539.08,357.427,538.869,357.089,538.711,357.14z"/>
      </g>
    </g>
  </g>
</svg>