<?xml version="1.0" standalone="no"?>
<!DOCTYPE svg PUBLIC "-//W3C//DTD SVG 20010904//EN"
 "http://www.w3.org/TR/2001/REC-SVG-20010904/DTD/svg10.dtd">
<svg version="1.0" xmlns="http://www.w3.org/2000/svg"
 width="260.000000pt" height="63.000000pt" viewBox="0 0 260.000000 63.000000"
 preserveAspectRatio="xMidYMid meet">

<g transform="translate(0.000000,63.000000) scale(0.100000,-0.100000)"
fill="#000000" stroke="none">
<path d="M255 540 c-36 -70 5 -151 79 -155 25 -2 50 -13 78 -36 23 -19 53 -42
67 -51 26 -18 25 -18 -59 -17 -47 1 -110 6 -140 12 -50 11 -55 14 -57 41 -4
49 -43 79 -110 83 -76 5 -89 -4 -74 -49 23 -69 89 -105 158 -86 27 7 52 7 83
0 91 -22 148 -24 335 -11 106 6 205 9 221 4 l29 -7 -40 -17 c-23 -9 -63 -29
-90 -45 -37 -22 -62 -29 -107 -31 -47 -1 -66 -7 -100 -31 -38 -26 -87 -93 -88
-118 0 -17 118 0 166 25 38 19 55 36 75 74 27 54 62 79 159 116 70 27 108 26
223 -5 83 -22 207 -69 207 -79 0 -2 -27 -21 -60 -43 -54 -35 -72 -54 -52 -54
4 0 34 18 67 40 33 22 67 40 75 40 8 0 43 -18 78 -40 66 -42 72 -45 72 -32 0
5 -27 26 -60 47 -33 21 -60 40 -60 42 0 14 184 77 283 97 64 14 72 13 130 -6
98 -32 155 -68 168 -105 22 -68 119 -123 214 -123 33 0 36 2 30 23 -23 73
-104 132 -185 133 -43 1 -66 7 -100 29 -25 16 -65 36 -90 46 l-45 17 29 8 c16
4 116 1 223 -6 190 -12 240 -10 334 11 32 7 59 7 83 1 69 -19 145 25 162 95 8
32 -8 43 -66 43 -57 0 -107 -29 -116 -67 -3 -15 -7 -33 -9 -39 -5 -16 -116
-34 -206 -34 -63 1 -71 3 -53 13 59 34 126 99 163 156 22 36 41 71 41 78 0 18
17 16 24 -3 18 -48 -5 -97 -58 -124 -23 -11 -35 -20 -28 -20 28 0 80 32 91 56
17 38 13 89 -8 115 l-20 24 -57 -57 c-52 -51 -58 -62 -59 -100 -1 -40 -4 -45
-65 -90 l-65 -47 -180 6 c-145 4 -197 2 -269 -11 -48 -10 -90 -16 -92 -14 -2
2 16 30 39 61 30 41 48 57 65 57 27 0 73 22 91 43 6 8 20 45 30 82 l19 67 -27
-7 c-98 -24 -161 -85 -161 -156 0 -39 -6 -52 -50 -104 -28 -33 -63 -64 -78
-69 -15 -5 -57 -21 -93 -36 l-67 -28 -88 35 c-77 29 -97 43 -147 96 -50 53
-58 66 -54 92 10 64 -39 124 -131 160 -24 10 -45 15 -48 12 -7 -6 16 -95 33
-129 15 -31 60 -58 97 -58 17 0 32 -11 47 -32 12 -18 34 -45 47 -60 30 -33 27
-33 -87 -12 -68 13 -123 15 -264 11 l-179 -6 -69 50 c-63 46 -68 52 -62 80 4
22 -1 39 -22 69 -24 35 -85 90 -99 90 -3 0 -12 -13 -21 -30z m1419 -65 c-37
-41 -69 -73 -72 -71 -10 10 11 65 32 85 18 17 90 59 104 61 2 0 -27 -34 -64
-75z m-1327 -64 l18 -24 -30 7 c-62 15 -99 80 -74 127 11 22 13 21 40 -32 16
-30 37 -65 46 -78z m39 26 c3 -10 1 -24 -4 -29 -7 -7 -21 6 -45 43 -53 84 -54
99 -3 49 25 -24 49 -53 52 -63z m585 -45 c-21 -7 -71 20 -90 47 -11 15 -23 44
-27 65 l-7 39 68 -74 c37 -40 62 -75 56 -77z m-41 126 c44 -30 73 -70 68 -95
-2 -17 -14 -9 -66 48 -64 69 -64 89 -2 47z m1351 -41 c-17 -30 -38 -60 -46
-67 -13 -11 -15 -8 -15 14 0 17 15 42 41 71 23 25 44 43 47 41 2 -3 -10 -29
-27 -59z m-540 0 c-15 -44 -49 -75 -91 -83 l-35 -7 30 34 c102 117 119 126 96
56z m-1554 -99 c20 -19 32 -58 18 -58 -17 0 -133 75 -128 83 9 15 86 -2 110
-25z m2343 23 c0 -12 -130 -85 -137 -77 -13 13 19 58 50 71 37 16 87 20 87 6z
m-2347 -85 c30 -19 18 -29 -30 -23 -37 4 -54 12 -75 36 -15 17 -28 38 -28 47
0 15 46 -6 133 -60z m2333 7 c-28 -26 -44 -33 -76 -33 -22 0 -40 3 -40 8 0 4
33 26 73 49 60 35 73 40 76 26 2 -10 -12 -31 -33 -50z m-1856 -160 c-1 -11
-180 -116 -187 -110 -9 10 29 57 65 79 29 18 63 29 115 37 4 0 7 -2 7 -6z
m1392 -24 c32 -17 56 -41 83 -89 8 -13 6 -13 -15 1 -14 9 -58 35 -98 59 -40
23 -75 46 -77 51 -9 13 67 -2 107 -22z m34 -97 c-45 -9 -156 61 -156 98 0 5
39 -14 87 -43 58 -35 81 -53 69 -55z m-1416 89 c0 -16 -68 -69 -104 -81 -71
-23 -66 -4 11 42 81 49 93 54 93 39z"/>
</g>
</svg>
