<?xml version="1.0" standalone="no"?>
<!DOCTYPE svg PUBLIC "-//W3C//DTD SVG 20010904//EN"
 "http://www.w3.org/TR/2001/REC-SVG-20010904/DTD/svg10.dtd">
<svg version="1.0" xmlns="http://www.w3.org/2000/svg"
 width="253.000000pt" height="301.000000pt" viewBox="0 0 253.000000 301.000000"
 preserveAspectRatio="xMidYMid meet">

<g transform="translate(0.000000,301.000000) scale(0.100000,-0.100000)"
fill="#FFFFFF" stroke="none">
<path d="M1871 2859 c-18 -52 -14 -113 9 -134 11 -10 20 -24 20 -32 0 -8 7
-28 16 -44 22 -43 12 -46 -35 -13 -28 20 -41 37 -41 52 0 13 -9 37 -21 53 -20
29 -76 65 -86 56 -2 -3 -1 -21 3 -42 8 -43 48 -95 74 -95 19 0 118 -60 119
-72 2 -14 -77 -31 -111 -24 -39 7 -104 68 -93 86 14 23 -18 72 -59 91 -54 24
-64 12 -41 -46 14 -38 25 -50 59 -64 23 -10 48 -26 56 -36 14 -17 13 -18 -29
-11 -24 4 -53 13 -64 21 -12 8 -32 15 -45 15 -29 0 -78 -25 -85 -44 -4 -10
-24 -14 -72 -15 -52 0 -70 4 -85 19 -28 28 -115 28 -132 0 -12 -19 -24 -20
-430 -20 l-418 0 0 -560 c0 -524 -1 -561 -17 -558 -14 2 -19 -8 -26 -52 -10
-68 -3 -112 23 -135 13 -12 20 -31 20 -54 l0 -36 -18 30 c-26 41 -48 59 -57
45 -4 -6 -9 -37 -12 -68 -5 -53 -3 -60 27 -97 l32 -40 -7 -117 c-5 -75 -3
-135 4 -165 9 -40 8 -59 -8 -113 -19 -62 -20 -63 -20 -26 -1 22 -15 70 -33
108 -31 68 -31 69 -15 104 10 19 17 50 17 70 0 35 -24 94 -38 94 -11 0 -50
-62 -57 -90 -8 -32 7 -73 41 -113 27 -32 68 -107 62 -113 -4 -3 -38 29 -82 79
-21 23 -33 27 -76 27 -30 0 -50 -4 -50 -11 0 -6 17 -27 38 -46 33 -31 41 -34
79 -29 38 5 44 2 72 -30 17 -19 31 -43 31 -54 0 -19 -1 -19 -45 2 -24 12 -47
19 -51 15 -3 -3 2 -30 12 -59 15 -43 39 -73 121 -155 56 -56 114 -108 130
-116 39 -20 122 -41 130 -33 3 3 -2 24 -12 46 -10 22 -15 43 -12 47 11 10 40
-20 59 -65 17 -38 18 -44 4 -64 -22 -31 -20 -97 4 -136 11 -18 24 -31 29 -28
15 9 33 103 26 128 -4 13 -13 30 -20 38 -14 15 -47 102 -41 107 1 2 18 -7 36
-19 20 -14 38 -38 46 -63 15 -45 64 -95 94 -95 24 0 24 -3 5 51 -19 51 -41 79
-66 79 -11 0 -44 17 -74 37 -54 36 -54 38 -33 50 13 7 44 12 70 13 64 0 118
-44 118 -96 0 -40 33 -79 75 -90 41 -10 48 7 22 56 -14 29 -34 51 -56 62 -19
10 -44 27 -55 38 l-21 20 35 -6 c19 -4 54 -15 76 -26 36 -18 46 -19 78 -8 20
6 44 23 53 36 31 48 79 17 67 -44 -7 -35 12 -75 55 -116 27 -26 31 -27 37 -12
10 25 -15 125 -34 142 -10 8 -28 24 -42 34 l-25 19 37 1 c27 0 44 -7 62 -25
38 -38 136 -31 136 10 0 13 58 15 420 15 l420 0 0 559 c0 540 1 559 19 554 23
-6 31 20 31 99 0 47 -4 62 -25 84 -17 18 -25 38 -25 63 l0 36 26 -43 c33 -55
58 -54 60 3 1 29 0 32 -3 10 -7 -44 -18 -50 -42 -19 -14 18 -21 41 -21 72 0
45 13 49 23 7 3 -13 5 -7 6 14 1 27 3 31 15 22 8 -7 17 -23 21 -38 3 -14 8
-23 11 -21 9 9 -17 63 -38 79 -21 17 -20 6 -20 222 0 48 0 108 0 135 -1 26 4
70 9 97 l11 50 1 -40 c1 -23 16 -71 35 -112 l35 -72 -20 -37 c-23 -46 -24 -73
-5 -119 19 -46 41 -44 66 5 29 58 26 89 -19 151 -47 66 -75 119 -62 119 10 0
71 -67 71 -79 0 -14 50 -31 90 -31 50 0 51 15 8 57 -40 37 -61 45 -90 34 -17
-6 -30 -3 -49 10 -26 18 -57 75 -47 85 3 3 24 -5 47 -17 23 -12 45 -19 48 -15
9 9 -15 85 -39 124 -11 19 -44 52 -71 74 -28 22 -62 54 -75 72 -12 17 -39 41
-60 53 -38 23 -138 51 -148 41 -3 -4 4 -25 16 -48 l21 -42 -23 4 c-16 2 -28
16 -42 51 -19 45 -19 49 -3 76 22 37 21 66 -3 119 -23 50 -34 53 -49 11z m47
-35 c13 -40 9 -84 -8 -84 -6 0 -11 15 -12 33 l-1 32 -4 -33 c-6 -43 -23 -31
-23 16 0 87 25 105 48 36z m-119 -79 c40 -46 40 -67 0 -29 -26 24 -30 25 -20
7 6 -12 16 -25 21 -28 20 -12 10 -26 -10 -15 -20 11 -28 25 -44 78 -11 34 17
28 53 -13z m-108 -34 c34 -35 37 -57 9 -66 -26 -8 -49 10 -67 52 -17 42 -17
43 8 43 11 0 34 -13 50 -29z m352 -51 c46 -14 73 -30 91 -51 38 -45 34 -52
-31 -47 -50 4 -60 9 -95 46 -21 23 -38 48 -38 57 0 19 -5 19 73 -5z m-408 -60
c3 -5 -2 -11 -12 -11 -17 -1 -17 -2 0 -6 21 -6 22 -19 1 -27 -24 -9 -104 -7
-104 2 0 33 99 68 115 42z m-287 -26 c30 -21 28 -35 -5 -29 -26 5 -27 5 -5 -5
25 -11 21 -30 -5 -30 -9 0 -14 -3 -10 -6 3 -4 20 -2 36 4 26 9 40 7 88 -15 54
-24 56 -27 33 -34 -19 -6 -13 -8 23 -6 52 2 59 -13 11 -27 -56 -16 -84 -43
-99 -93 -8 -29 6 -29 65 0 38 19 45 27 48 55 2 20 12 38 26 47 30 20 179 46
165 29 -5 -6 -27 -14 -49 -18 -28 -4 -46 -15 -63 -39 -53 -72 -45 -96 22 -63
54 28 76 51 76 80 0 14 16 28 54 48 60 31 105 35 158 13 19 -8 43 -15 52 -14
9 0 0 6 -20 14 -20 7 -51 21 -69 30 -39 20 -35 24 56 56 53 19 54 19 99 -3 54
-26 43 -36 -42 -37 -29 -1 -53 -5 -53 -11 0 -8 57 -6 113 5 9 2 17 -1 17 -5 0
-13 -50 -50 -69 -51 -10 0 -11 -3 -4 -6 9 -3 4 -20 -16 -56 -31 -57 -46 -113
-31 -122 9 -6 80 28 137 65 19 13 34 17 37 11 4 -6 9 -46 13 -91 5 -70 4 -83
-13 -101 -30 -34 -78 -51 -110 -39 -15 6 -29 9 -31 6 -3 -2 6 -7 18 -11 l22
-7 -24 -14 -24 -14 28 6 c33 8 36 -9 5 -30 -25 -18 -17 -21 13 -6 10 6 19 17
19 25 0 8 18 26 40 40 46 29 50 30 50 10 0 -24 -58 -82 -89 -88 -29 -6 -62
-56 -60 -94 0 -10 7 0 15 21 17 47 32 66 50 66 12 0 12 -5 -1 -32 l-16 -33 24
29 c16 18 27 24 31 17 11 -18 -2 -45 -40 -81 -29 -29 -36 -32 -44 -20 -8 13
-10 13 -10 -2 0 -9 5 -20 10 -23 14 -9 36 10 72 59 16 22 28 32 28 23 0 -27
20 -30 46 -6 l24 22 0 -32 c0 -45 -24 -86 -58 -100 -29 -12 -45 -34 -57 -78
-7 -24 3 -73 15 -73 4 0 27 19 50 41 40 39 42 44 36 85 -3 24 -1 46 4 49 17
11 12 -177 -5 -199 -19 -25 -19 -67 0 -113 13 -30 15 -121 15 -599 l0 -564
-424 0 c-413 0 -426 1 -460 21 -28 16 -46 20 -83 15 -37 -4 -59 0 -98 18 l-50
23 70 15 c49 11 75 13 88 6 27 -14 58 -3 91 31 39 41 30 64 -21 56 -52 -9 -79
-23 -91 -50 -8 -16 -24 -25 -68 -33 -31 -7 -68 -12 -82 -12 -21 0 -22 2 -12
15 7 8 22 15 34 15 27 0 72 46 81 83 9 32 2 33 -58 8 -42 -18 -66 -49 -53 -70
8 -12 -27 -41 -60 -50 -29 -8 -29 -8 11 -16 23 -4 54 -20 72 -38 30 -28 49
-27 21 1 -9 9 -9 12 2 12 19 -1 100 -37 100 -45 0 -4 -19 -6 -42 -5 -77 3
-125 -1 -105 -9 17 -6 16 -8 -5 -28 -26 -25 -71 -38 -89 -28 -8 6 -4 12 12 21
l24 13 -25 1 c-80 2 -173 9 -178 15 -3 3 35 5 86 4 51 -1 96 1 99 5 4 3 -46 6
-109 6 -93 0 -117 3 -122 15 -3 10 2 17 17 20 12 3 63 14 112 25 73 16 79 19
35 15 -50 -5 -53 -4 -36 10 11 8 31 15 44 15 29 0 79 48 88 84 9 38 2 40 -48
16 -59 -30 -78 -49 -78 -76 0 -17 -12 -30 -42 -48 -62 -36 -110 -42 -164 -21
-65 25 -64 13 1 -14 30 -13 55 -26 55 -31 0 -9 -105 -50 -131 -50 -23 0 -89
31 -89 42 0 4 29 8 65 8 36 0 65 4 65 10 0 5 -27 7 -67 4 l-68 -5 28 25 c15
14 40 27 55 27 17 1 20 3 10 6 -10 2 -18 6 -18 8 0 2 13 32 30 67 32 66 38
108 18 108 -13 0 -91 -42 -139 -73 l-26 -17 -12 56 c-17 89 -14 127 12 151 38
35 62 43 114 36 45 -5 53 -3 83 24 44 39 36 63 -19 63 -50 0 -89 -17 -97 -42
-6 -19 -82 -73 -91 -65 -7 7 22 60 43 78 11 9 31 19 46 23 44 10 72 87 52 140
-10 26 -30 18 -68 -26 -27 -31 -36 -51 -36 -79 0 -22 -12 -60 -30 -94 -17 -31
-30 -73 -30 -92 0 -20 -4 -32 -10 -28 -6 3 -10 37 -10 76 0 53 3 69 14 69 25
0 56 50 56 90 0 50 -9 55 -42 23 l-28 -27 0 28 c0 42 35 103 64 110 14 3 32
20 41 36 17 33 20 96 5 105 -16 10 -79 -42 -86 -71 -5 -19 -9 -22 -15 -12 -14
22 -10 94 6 108 19 16 19 96 0 130 -12 21 -14 119 -15 588 l0 562 433 0 c364
-1 435 -3 451 -15 11 -8 25 -15 30 -15 6 0 -6 11 -27 25 -37 26 -43 36 -30 48
12 13 79 7 101 -9z m391 -10 c2 -2 -17 -4 -43 -4 -30 0 -45 4 -41 10 6 9 72 4
84 -6z m538 -96 c25 -26 68 -117 59 -125 -24 -24 -139 82 -150 138 -13 69 -10
74 32 41 20 -17 47 -41 59 -54z m-797 47 c16 -17 19 -25 9 -25 -17 0 -99 37
-99 45 0 3 15 5 33 5 23 0 41 -8 57 -25z m357 9 c5 -15 -121 -45 -217 -51
l-75 -5 -35 36 -34 36 178 -2 c123 -2 181 -7 183 -14z m304 -1 c-5 -10 -28
-39 -51 -65 -23 -27 -37 -48 -31 -48 6 0 29 25 52 55 23 30 45 55 49 55 11 0
-8 -81 -26 -108 -27 -41 -167 -131 -177 -114 -9 14 26 97 60 144 43 60 150
129 124 81z m-487 -115 l-19 -22 25 17 c33 23 43 21 30 -3 -9 -17 -77 -60 -95
-60 -17 0 0 37 30 67 38 38 62 38 29 1z m527 -98 c6 0 8 22 3 60 -7 66 5 80
26 30 13 -32 7 -95 -14 -145 l-13 -30 -17 33 c-25 48 -32 127 -15 159 13 25
14 23 17 -40 2 -37 7 -67 13 -67z m-697 78 l-19 -21 29 18 c28 18 28 18 24 -1
-2 -10 -22 -29 -46 -42 -40 -22 -42 -23 -42 -4 0 10 11 31 25 46 29 31 57 36
29 4z m934 -158 c23 -17 42 -35 42 -40 0 -16 -73 -12 -98 6 -25 17 -30 39 -7
30 38 -15 48 -16 22 -1 -15 9 -25 20 -22 25 9 15 19 12 63 -20z m-248 -73 c0
-65 -2 -73 -22 -82 -13 -6 -27 -20 -33 -32 -5 -13 -13 -23 -17 -23 -15 0 -8
31 17 68 13 20 29 61 35 90 7 28 14 52 16 52 2 0 4 -33 4 -73z m35 34 c3 -10
1 -30 -5 -45 -13 -35 -13 -56 0 -36 15 23 12 -78 -3 -113 -10 -24 -12 -12 -14
92 -2 111 6 150 22 102z m123 -97 c2 33 4 37 17 26 21 -17 19 -69 -5 -108 -24
-38 -34 -35 -50 14 -12 36 -7 79 13 103 10 12 13 6 18 -30 l6 -44 1 39z m-179
-56 c-12 -23 -12 -23 10 -4 28 26 27 9 -5 -37 -14 -21 -30 -35 -36 -31 -14 9
-2 63 19 86 21 24 28 16 12 -14z m61 -137 c0 -16 -8 -35 -17 -42 -15 -13 -16
-11 -10 11 4 14 7 35 7 48 0 13 4 20 10 17 6 -3 10 -19 10 -34z m-94 -78 c-5
-26 -5 -27 6 -5 14 27 28 29 28 2 0 -26 -63 -95 -78 -86 -22 14 12 116 39 116
7 0 9 -11 5 -27z m103 -212 c0 -31 -4 -65 -8 -76 -7 -18 -10 -17 -30 15 -28
45 -35 74 -27 106 7 28 21 23 29 -11 3 -13 5 -7 6 14 1 29 3 32 16 21 10 -9
15 -30 14 -69z m-1835 -208 c22 -30 34 -117 17 -127 -6 -4 -11 -2 -11 5 0 7
-6 4 -14 -7 -14 -18 -15 -18 -26 11 -11 30 -5 145 8 145 4 0 16 -12 26 -27z
m-41 -197 c22 -32 31 -72 22 -93 -6 -15 -10 -13 -21 12 l-14 30 6 -32 c4 -25
2 -33 -9 -33 -25 0 -36 61 -21 118 8 28 18 28 37 -2z m157 -21 c0 -25 -8 -44
-26 -62 -28 -28 -41 -25 -24 6 6 12 7 21 2 21 -5 0 -14 -10 -20 -22 -10 -22
-11 -22 -11 6 -1 19 9 40 26 58 37 38 53 36 53 -7z m-99 -118 c-13 -13 -15 11
-4 40 7 16 8 15 11 -6 2 -13 -1 -28 -7 -34z m-22 6 c-1 -10 -4 -29 -8 -43 l-7
-25 -7 27 c-8 29 0 58 14 58 5 0 9 -8 8 -17z m189 -71 c4 -37 -11 -67 -40 -83
-18 -10 -20 -9 -15 5 18 44 17 49 -7 21 l-25 -30 -1 27 c0 30 55 101 74 95 6
-2 12 -18 14 -35z m-128 -83 c-7 -16 -19 -29 -27 -29 -11 0 -11 4 -2 23 9 18
9 20 -2 10 -7 -7 -17 -13 -22 -13 -11 0 19 50 42 68 14 11 16 10 19 -8 2 -12
-2 -35 -8 -51z m-64 1 c-7 -75 -25 -115 -26 -56 0 37 18 116 27 116 3 0 2 -27
-1 -60z m-108 25 c15 -32 15 -80 2 -106 -16 -29 -30 -23 -31 14 l-2 32 -7 -35
-7 -35 -12 29 c-12 30 -9 51 16 99 17 34 27 34 41 2z m386 -54 c11 -17 -46
-61 -78 -61 -30 1 -30 1 -11 17 19 15 19 15 -7 9 -34 -8 -36 7 -6 28 24 17 93
22 102 7z m-274 -96 c0 -25 -4 -45 -10 -45 -11 0 -14 49 -4 74 10 26 14 18 14
-29z m-179 -35 c10 -6 19 -17 19 -26 0 -12 -4 -13 -21 -4 -11 7 -23 9 -27 6
-3 -3 -1 -6 4 -6 6 0 19 -7 30 -15 18 -14 18 -14 -8 -15 -26 0 -88 43 -88 61
0 12 67 11 91 -1z m213 -112 c16 -56 17 -71 6 -97 -18 -45 -30 -29 -30 41 0
34 -3 58 -7 54 -5 -4 -6 -34 -5 -67 2 -32 1 -59 -3 -59 -3 0 -13 16 -21 36
-13 31 -13 42 1 95 8 34 15 63 15 66 0 2 6 3 13 1 6 -3 21 -34 31 -70z m196
-6 c0 -56 -93 -182 -159 -217 -40 -20 -39 -5 1 42 18 21 39 46 47 56 8 9 9 17
4 17 -6 0 -32 -28 -57 -62 -38 -52 -46 -58 -46 -37 0 78 33 122 135 183 69 41
75 43 75 18z m530 -17 c0 -17 -33 -66 -50 -75 -22 -12 -27 -1 -7 19 10 11 8
11 -10 0 -23 -14 -40 -8 -28 10 6 11 74 50 88 51 4 0 7 -2 7 -5z m-816 -65
c40 -36 59 -76 54 -120 l-3 -32 -49 37 c-47 37 -96 116 -96 158 0 16 2 16 30
2 16 -8 45 -29 64 -45z m649 31 c-6 -24 -60 -77 -70 -68 -3 4 2 17 13 29 17
21 16 21 -9 -1 -28 -25 -44 -23 -34 3 6 15 72 55 94 56 6 0 9 -8 6 -19z m347
-12 c0 -18 -60 -69 -81 -69 -24 0 -25 16 -1 30 15 9 14 10 -5 5 -24 -7 -32 8
-11 21 12 7 63 21 86 23 6 1 12 -4 12 -10z m-33 -164 c46 -28 53 -39 27 -49
-34 -13 -74 -5 -101 20 l-28 25 35 -5 35 -6 -28 13 c-27 13 -27 27 1 27 9 0
35 -11 59 -25z m-764 -37 c23 -12 78 -88 72 -99 -3 -4 -27 -1 -53 6 -26 8 -50
15 -54 15 -14 0 -78 62 -78 75 0 25 68 27 113 3z m651 -55 c7 -16 17 -48 20
-73 l7 -45 -40 42 c-23 23 -41 51 -41 63 0 30 17 24 29 -10 5 -16 12 -30 15
-30 3 0 -1 18 -9 40 -16 45 -3 54 19 13z m-249 -53 c19 -36 19 -60 1 -60 -23
0 -76 50 -76 72 0 18 2 19 16 7 15 -12 16 -11 9 9 -6 22 -5 23 14 13 11 -7 28
-25 36 -41z m-140 -7 c28 -28 46 -93 26 -93 -17 0 -71 58 -71 76 0 15 4 14 27
-7 l27 -24 -23 33 c-23 34 -14 44 14 15z m-116 -73 c2 33 2 34 16 16 8 -11 15
-27 15 -35 0 -28 -21 -91 -29 -91 -13 0 -31 57 -31 95 0 45 14 53 21 13 l6
-33 2 35z"/>
<path d="M1680 2671 c0 -6 4 -13 10 -16 6 -3 7 1 4 9 -7 18 -14 21 -14 7z"/>
<path d="M432 1988 l3 -513 2 507 3 508 358 3 357 2 -362 3 -363 2 2 -512z"/>
<path d="M1263 2414 c-43 -42 -42 -54 7 -54 48 0 97 23 102 46 2 10 20 22 43
28 37 11 36 11 -40 12 -77 1 -81 0 -112 -32z m67 6 l-25 -21 30 6 30 6 -24
-20 c-24 -22 -91 -29 -91 -11 0 20 53 60 79 60 l26 0 -25 -20z"/>
<path d="M1094 2416 c-8 -21 3 -36 27 -36 15 0 20 6 17 22 -4 27 -35 37 -44
14z m36 -17 c0 -5 -7 -9 -15 -9 -15 0 -20 12 -9 23 8 8 24 -1 24 -14z"/>
<path d="M1919 2101 c-16 -16 -29 -34 -29 -39 0 -11 78 -28 86 -19 3 2 -15 7
-38 11 l-43 7 37 35 c21 19 33 34 27 34 -6 0 -24 -13 -40 -29z"/>
<path d="M2120 995 l-5 -530 -340 -7 c-187 -4 -353 -9 -370 -11 -16 -2 139 -2
345 1 206 2 376 6 378 7 1 1 1 242 0 536 l-3 534 -5 -530z"/>
<path d="M460 1381 c0 -24 13 -33 35 -25 23 9 14 38 -13 42 -16 3 -22 -2 -22
-17z m38 -2 c-2 -6 -8 -10 -13 -10 -5 0 -11 4 -13 10 -2 6 4 11 13 11 9 0 15
-5 13 -11z"/>
<path d="M704 575 c-4 -9 -2 -21 4 -27 15 -15 44 -1 40 19 -4 23 -36 29 -44 8z
m34 -6 c-2 -6 -8 -10 -13 -10 -5 0 -11 4 -13 10 -2 6 4 11 13 11 9 0 15 -5 13
-11z"/>
<path d="M371 1314 c0 -11 3 -14 6 -6 3 7 2 16 -1 19 -3 4 -6 -2 -5 -13z"/>
<path d="M1480 2779 c-9 -16 -8 -26 5 -45 26 -39 75 -26 75 21 0 45 -60 63
-80 24z m68 -21 c2 -19 -2 -28 -17 -33 -27 -8 -41 1 -41 29 0 29 9 38 35 34
13 -2 21 -12 23 -30z"/>
<path d="M1361 2718 c0 -65 19 -109 57 -130 l32 -18 0 49 c0 40 -6 57 -32 92
-46 59 -58 61 -57 7z m79 -73 c0 -34 -7 -32 -25 8 -14 30 -14 15 1 -33 4 -11
2 -20 -2 -20 -17 0 -35 42 -40 93 l-6 52 36 -37 c22 -23 36 -48 36 -63z"/>
<path d="M1217 2703 c-15 -14 -7 -43 12 -43 24 0 33 13 25 34 -6 16 -25 21
-37 9z m33 -24 c0 -5 -7 -9 -15 -9 -15 0 -20 12 -9 23 8 8 24 -1 24 -14z"/>
<path d="M2310 1904 c-11 -12 -10 -18 3 -32 16 -15 18 -15 34 0 13 14 14 20 3
32 -7 9 -16 16 -20 16 -4 0 -13 -7 -20 -16z m36 -5 c10 -17 -13 -36 -27 -22
-12 12 -4 33 11 33 5 0 12 -5 16 -11z"/>
<path d="M2307 1643 c-15 -14 -7 -43 12 -43 26 0 36 17 21 35 -14 16 -23 19
-33 8z m31 -21 c2 -7 -3 -12 -12 -12 -9 0 -16 7 -16 16 0 17 22 14 28 -4z"/>
<path d="M204 1075 c-4 -9 -2 -21 4 -27 15 -15 44 -1 40 19 -4 23 -36 29 -44
8z m36 -16 c0 -5 -7 -9 -15 -9 -15 0 -20 12 -9 23 8 8 24 -1 24 -14z"/>
<path d="M1317 293 c-15 -14 -7 -43 12 -43 24 0 33 13 25 34 -6 16 -25 21 -37
9z m25 -18 c0 -5 -5 -11 -11 -13 -6 -2 -11 4 -11 13 0 9 5 15 11 13 6 -2 11
-8 11 -13z"/>
<path d="M1007 274 c-15 -15 -7 -63 13 -74 33 -17 62 4 58 43 -3 27 -7 32 -33
35 -17 2 -34 0 -38 -4z m61 -35 c4 -30 -22 -46 -44 -28 -15 12 -19 41 -7 53
16 16 48 1 51 -25z"/>
</g>
</svg>
